<svg width="20" height="20" viewBox="0 0 20 20" fill="none" xmlns="http://www.w3.org/2000/svg">
<path d="M17.8389 0H2.16114C0.967616 0 0 0.967616 0 2.16114V17.8389C0 19.0324 0.967616 20 2.16114 20H17.8389C19.0324 20 20 19.0324 20 17.8389V2.16114C20 0.967616 19.0324 0 17.8389 0ZM9.99532 17.5443C5.81506 17.5443 2.42606 14.1553 2.42606 9.97503C2.42606 5.79438 5.81506 2.40577 9.99532 2.40577C14.1756 2.40577 17.5646 5.79438 17.5646 9.97503C17.5646 14.1553 14.1756 17.5443 9.99532 17.5443Z" fill="#FCC200"/>
<path d="M9.99532 17.5443C5.81506 17.5443 2.42606 14.1553 2.42606 9.97503C2.42606 5.79438 5.81506 2.40577 9.99532 2.40577C14.1756 2.40577 17.5646 5.79438 17.5646 9.97503C17.5646 14.1553 14.1756 17.5443 9.99532 17.5443Z" fill="#FCC200"/>
<path d="M17.5002 6.951C17.5002 8.97424 16.936 10.9605 15.8687 12.6951C14.8348 14.3752 12.3906 16.4032 10.6284 17.3839C10.4022 17.5098 10.1167 17.4284 9.99081 17.2022C9.86492 16.9759 9.94625 16.6905 10.1725 16.5646C13.518 14.7028 16.5626 10.6357 16.5626 6.95097C16.5626 6.57761 16.5416 6.20273 16.5 5.83168C16.2445 5.85503 15.9887 5.86681 15.735 5.86681C13.6203 5.86681 11.6007 5.08057 9.99986 3.64324C8.39899 5.0806 6.37941 5.86681 4.26468 5.86681C4.01105 5.86681 3.75515 5.85503 3.49974 5.83168C3.45813 6.20279 3.43713 6.57761 3.43713 6.95097C3.43713 11.1703 6.08091 14.9439 10.1725 16.5646C10.4132 16.6599 10.531 16.9324 10.4357 17.1731C10.3628 17.3571 10.1863 17.4693 9.99969 17.4693C9.94224 17.4693 9.88385 17.4587 9.82719 17.4363C7.68685 16.5885 5.8635 15.1699 4.55428 13.3338C3.21005 11.4486 2.49951 9.24149 2.49951 6.951C2.49951 6.37816 2.54478 5.80192 2.63401 5.23834C2.67421 4.98448 2.91116 4.81037 3.16561 4.84792C3.53067 4.90189 3.90046 4.92922 4.26471 4.92922C6.27852 4.92922 8.19808 4.12543 9.66978 2.66595C9.85253 2.48472 10.1472 2.48472 10.33 2.66595C11.8017 4.12543 13.7212 4.92922 15.735 4.92922C16.0993 4.92922 16.4691 4.90186 16.8341 4.84792C17.0884 4.81034 17.3255 4.98442 17.3657 5.23834C17.4549 5.80183 17.5002 6.37807 17.5002 6.951ZM12.7046 7.96702C12.5301 7.77585 12.2336 7.76229 12.0424 7.93678L9.13393 10.5913L7.98676 9.34133C7.81171 9.15058 7.51514 9.13781 7.32441 9.31292C7.13366 9.48796 7.12095 9.78454 7.296 9.97526L8.75926 11.5697C8.85166 11.6705 8.97802 11.7216 9.10476 11.7216C9.21761 11.7216 9.33078 11.6811 9.42066 11.599L12.6744 8.6293C12.8656 8.45478 12.8792 8.15827 12.7046 7.96702Z" fill="#1A1A18"/>
<path d="M10.1725 16.5646C9.94625 16.6905 9.86492 16.9759 9.99081 17.2022C10.1167 17.4284 10.4022 17.5098 10.6284 17.3839C12.3906 16.4032 14.8348 14.3752 15.8687 12.6951C16.936 10.9605 17.5002 8.97424 17.5002 6.951C17.5002 6.37807 17.4549 5.80183 17.3657 5.23834C17.3255 4.98442 17.0884 4.81034 16.8341 4.84792C16.4691 4.90186 16.0993 4.92922 15.735 4.92922C13.7212 4.92922 11.8017 4.12543 10.33 2.66595C10.1472 2.48472 9.85253 2.48472 9.66978 2.66595C8.19808 4.12543 6.27852 4.92922 4.26471 4.92922C3.90046 4.92922 3.53067 4.90189 3.16561 4.84792C2.91116 4.81037 2.67421 4.98448 2.63401 5.23834C2.54478 5.80192 2.49951 6.37816 2.49951 6.951C2.49951 9.24149 3.21005 11.4486 4.55428 13.3338C5.8635 15.1699 7.68685 16.5885 9.82719 17.4363C9.88385 17.4587 9.94224 17.4693 9.99969 17.4693C10.1863 17.4693 10.3628 17.3571 10.4357 17.1731C10.531 16.9324 10.4132 16.6599 10.1725 16.5646ZM10.1725 16.5646C13.518 14.7028 16.5626 10.6357 16.5626 6.95097C16.5626 6.57761 16.5416 6.20273 16.5 5.83168C16.2446 5.85503 15.9887 5.86681 15.735 5.86681C13.6203 5.86681 11.6007 5.08057 9.99986 3.64324C8.39899 5.0806 6.37941 5.86681 4.26468 5.86681C4.01105 5.86681 3.75515 5.85503 3.49974 5.83168C3.45813 6.20279 3.43713 6.57761 3.43713 6.95097C3.43713 11.1703 6.08091 14.9439 10.1725 16.5646ZM12.7046 7.96702C12.5301 7.77585 12.2336 7.76229 12.0424 7.93678L9.13393 10.5913L7.98676 9.34133C7.81171 9.15058 7.51514 9.13781 7.32441 9.31292C7.13366 9.48796 7.12095 9.78454 7.296 9.97526L8.75926 11.5697C8.85166 11.6705 8.97802 11.7216 9.10476 11.7216C9.21761 11.7216 9.33078 11.6811 9.42066 11.599L12.6744 8.6293C12.8656 8.45478 12.8792 8.15827 12.7046 7.96702Z" stroke="#1A1A18" stroke-width="0.2"/>
</svg>
