<svg width="20" height="20" viewBox="0 0 20 20" fill="none" xmlns="http://www.w3.org/2000/svg">
<path d="M17.8389 0H2.16114C0.967616 0 0 0.967616 0 2.16114V17.8389C0 19.0324 0.967616 20 2.16114 20H17.8389C19.0324 20 20 19.0324 20 17.8389V2.16114C20 0.967616 19.0324 0 17.8389 0ZM9.99532 17.5443C5.81506 17.5443 2.42606 14.1553 2.42606 9.97503C2.42606 5.79438 5.81506 2.40577 9.99532 2.40577C14.1756 2.40577 17.5646 5.79438 17.5646 9.97503C17.5646 14.1553 14.1756 17.5443 9.99532 17.5443Z" fill="#FCC200"/>
<path d="M9.99532 17.5443C5.81506 17.5443 2.42606 14.1553 2.42606 9.97503C2.42606 5.79438 5.81506 2.40577 9.99532 2.40577C14.1756 2.40577 17.5646 5.79438 17.5646 9.97503C17.5646 14.1553 14.1756 17.5443 9.99532 17.5443Z" fill="#FCC200"/>
<path d="M17.3096 11.2297L17.2813 11.2127C16.9583 11.0257 16.7685 10.6687 16.7883 10.2805C16.794 10.187 16.794 10.0935 16.794 10C16.794 9.9065 16.794 9.813 16.7883 9.72233C16.7685 9.33133 16.9583 8.97433 17.2813 8.78733L17.3096 8.77033C18.052 8.33967 18.3098 7.38767 17.8791 6.6425L16.8478 4.8575C16.641 4.49767 16.3038 4.23983 15.9015 4.13217C15.4991 4.0245 15.0798 4.07833 14.72 4.288L14.6888 4.305C14.3658 4.492 13.9805 4.48633 13.683 4.2965C13.496 4.1775 13.3033 4.067 13.105 3.965C12.7933 3.80633 12.5893 3.4635 12.5893 3.09517V3.05833C12.5893 2.19983 11.8895 1.5 11.031 1.5H8.9683C8.1098 1.5 7.40997 2.19983 7.40997 3.05833V3.09517C7.40997 3.4635 7.2088 3.8035 6.8943 3.965C6.69597 4.067 6.50047 4.1775 6.3163 4.2965C6.01597 4.48917 5.63064 4.492 5.31047 4.305L5.2793 4.288C4.91947 4.08117 4.50014 4.0245 4.0978 4.13217C3.69547 4.23983 3.36114 4.49767 3.15147 4.8575L2.12014 6.6425C1.68947 7.38483 1.9473 8.33967 2.68964 8.77033L2.71797 8.78733C3.04097 8.97433 3.2308 9.33133 3.21097 9.7195C3.2053 9.813 3.2053 9.9065 3.2053 10C3.2053 10.0935 3.2053 10.187 3.21097 10.2777C3.2308 10.6687 3.04097 11.0257 2.71797 11.2127L2.68964 11.2297C1.9473 11.6603 1.68947 12.6123 2.12014 13.3575L3.15147 15.1425C3.3583 15.5023 3.69547 15.7602 4.0978 15.8678C4.50014 15.9755 4.91947 15.9188 5.2793 15.712L5.31047 15.695C5.63347 15.508 6.0188 15.5137 6.3163 15.7035C6.50047 15.8225 6.69597 15.933 6.8943 16.035C7.20597 16.1937 7.40997 16.5365 7.40997 16.9048V16.9417C7.40997 17.8002 8.1098 18.5 8.9683 18.5H11.031C11.8895 18.5 12.5893 17.8002 12.5893 16.9417V16.9048C12.5893 16.5365 12.7905 16.1965 13.105 16.035C13.3033 15.933 13.4988 15.8225 13.683 15.7035C13.9805 15.5108 14.3658 15.508 14.6888 15.695L14.72 15.712C15.0798 15.9188 15.4991 15.9755 15.9015 15.8678C16.3038 15.7602 16.6381 15.5023 16.8478 15.1425L17.8791 13.3575C18.3098 12.6152 18.052 11.6603 17.3096 11.2297ZM17.389 13.0742L16.3576 14.8592C16.2245 15.0887 16.012 15.253 15.757 15.321C15.502 15.389 15.2356 15.355 15.0061 15.2218L14.975 15.2048C14.4678 14.913 13.8586 14.9215 13.3798 15.2275C13.2098 15.3352 13.0313 15.4372 12.85 15.5307C12.3428 15.7913 12.0255 16.3155 12.0255 16.9048V16.9417C12.0255 17.4885 11.5806 17.9333 11.0338 17.9333H8.97114C8.4243 17.9333 7.97947 17.4885 7.97947 16.9417V16.9048C7.97947 16.3183 7.66214 15.7913 7.15497 15.5307C6.97364 15.4372 6.79514 15.3352 6.62514 15.2275C6.37864 15.0688 6.09814 14.9923 5.8148 14.9923C5.54564 14.9923 5.27647 15.0632 5.02997 15.2048L4.9988 15.2218C4.7693 15.355 4.50297 15.389 4.24797 15.321C3.99297 15.253 3.77764 15.0887 3.6473 14.8592L2.61597 13.0742C2.34397 12.601 2.50547 11.9947 2.97864 11.7198L3.00697 11.7028C3.51414 11.411 3.81164 10.8528 3.7833 10.2522C3.78047 10.17 3.77764 10.085 3.77764 10C3.77764 9.915 3.77764 9.83283 3.7833 9.74783C3.81164 9.14433 3.51414 8.589 3.00697 8.29717L2.97864 8.28017C2.50547 8.00817 2.34397 7.399 2.61597 6.92583L3.6473 5.14083C3.78047 4.91133 3.99297 4.747 4.24797 4.679C4.50297 4.611 4.7693 4.645 4.9988 4.77817L5.02997 4.79517C5.53714 5.087 6.1463 5.0785 6.62514 4.7725C6.79514 4.66483 6.97364 4.56283 7.15497 4.46933C7.66214 4.20867 7.97947 3.6845 7.97947 3.09517V3.05833C7.97947 2.5115 8.4243 2.06667 8.97114 2.06667H11.0338C11.5806 2.06667 12.0255 2.5115 12.0255 3.05833V3.09517C12.0255 3.68167 12.3428 4.20867 12.85 4.46933C13.0313 4.56283 13.2098 4.66483 13.3798 4.7725C13.8586 5.0785 14.4678 5.087 14.975 4.79517L15.0061 4.77817C15.2356 4.645 15.502 4.611 15.757 4.679C16.012 4.747 16.2273 4.91133 16.3576 5.14083L17.389 6.92583C17.661 7.399 17.4995 8.00533 17.0263 8.28017L16.998 8.29717C16.4908 8.589 16.1933 9.14717 16.2216 9.74783C16.2245 9.83 16.2273 9.915 16.2273 10C16.2273 10.085 16.2273 10.1672 16.2216 10.2522C16.1933 10.8557 16.4908 11.411 16.998 11.7028L17.0263 11.7198C17.4995 11.9918 17.661 12.601 17.389 13.0742ZM13.3373 6.57167C13.1786 6.379 12.952 6.26 12.7026 6.2345C12.4533 6.21183 12.2096 6.2855 12.0141 6.447L11.9206 6.5235C11.6458 6.75017 11.5381 7.10433 11.6033 7.43017L11.5863 7.44433C11.2151 7.74183 10.7675 7.92033 10.2886 7.96C10.0308 7.97983 9.77297 8.02517 9.5208 8.0875C9.4783 8.08183 9.43864 8.07617 9.40747 8.07333L8.4583 7.44717C8.5263 7.14683 8.4498 6.821 8.2203 6.583L8.13814 6.498C7.7783 6.12683 7.18047 6.1155 6.8093 6.47817L4.54264 8.674C4.3613 8.84967 4.26214 9.082 4.25647 9.33417C4.2508 9.58633 4.34714 9.8215 4.5228 10.0028L4.60497 10.0878C4.78064 10.2692 5.01297 10.3683 5.26514 10.374H5.2793C5.4323 10.374 5.5768 10.3343 5.70997 10.2663L5.76947 10.3173C6.04147 10.544 6.25964 10.833 6.40697 11.1532C6.3588 11.3118 6.35031 11.4818 6.4013 11.6433C6.47214 11.8785 6.6393 12.0598 6.8433 12.1618C6.78097 12.3375 6.77814 12.533 6.8433 12.7143C6.93397 12.9693 7.1323 13.162 7.38447 13.247C7.4043 13.2527 7.4213 13.2583 7.44114 13.264C7.40997 13.4737 7.45814 13.6833 7.57714 13.8618C7.74997 14.114 8.04464 14.2613 8.3478 14.2358C8.3818 14.2358 8.4158 14.2302 8.4498 14.2217C8.47247 14.3293 8.51497 14.4342 8.58014 14.5277C8.70764 14.7175 8.9003 14.845 9.12414 14.8903C9.1808 14.9017 9.23747 14.9073 9.29414 14.9073C9.45847 14.9073 9.61997 14.8592 9.74464 14.7742L11.7903 13.638C11.8328 13.6182 12.221 13.4368 12.5326 12.89C13.0228 12.0287 13.6008 11.3345 14.2553 10.8217L14.3318 10.7622C14.4536 10.816 14.584 10.8443 14.7171 10.8443C14.9296 10.8443 15.1393 10.7735 15.315 10.629L15.4085 10.5525C15.808 10.221 15.8646 9.62883 15.5331 9.22933L13.3373 6.5745V6.57167ZM5.53997 9.69967C5.46914 9.76767 5.36714 9.80167 5.27364 9.8045C5.17447 9.8045 5.08097 9.762 5.01014 9.69117L4.92797 9.60617C4.7863 9.45883 4.78914 9.22083 4.93647 9.07917L7.20314 6.88333C7.2768 6.8125 7.3703 6.7785 7.4638 6.7785C7.5573 6.7785 7.6593 6.81533 7.73297 6.89183L7.81514 6.97683C7.9568 7.12417 7.95397 7.36217 7.80664 7.50383L5.53997 9.69967ZM6.78664 10.6517C6.61947 10.3655 6.40414 10.1077 6.15197 9.89517L8.17214 7.93733L9.15814 8.589C9.20347 8.62017 9.26014 8.63433 9.31397 8.63717C9.3253 8.63717 9.38197 8.63717 9.4783 8.657C9.6738 8.691 10.0648 8.79017 10.47 9.07917C10.7306 9.26617 11.014 9.3965 11.2605 9.50983C11.7025 9.71383 11.898 9.8215 11.8895 9.9915C11.8895 10.0567 11.8611 10.102 11.8073 10.1445C11.6288 10.2833 11.15 10.3598 10.4841 10.2182C10.3736 10.1927 10.2291 10.1643 10.0733 10.1615C10.0251 10.1615 9.97414 10.1615 9.91464 10.1615C9.5548 10.17 9.01647 10.1842 8.2203 9.44467C8.10697 9.337 7.92564 9.3455 7.8208 9.45883C7.71314 9.57217 7.72164 9.7535 7.83497 9.85833C7.8548 9.87533 7.8718 9.89233 7.89164 9.90933L6.78947 10.6488L6.78664 10.6517ZM12.0425 12.6038C11.8243 12.9863 11.5721 13.1082 11.541 13.1252L9.44997 14.2868C9.38764 14.3293 9.3083 14.3435 9.23464 14.3293C9.15814 14.3152 9.09297 14.2698 9.05047 14.2047C8.9853 14.1083 8.99097 13.9865 9.0533 13.8902L10.4671 12.873C10.5946 12.7823 10.623 12.6038 10.5323 12.4763C10.4416 12.3488 10.2631 12.3205 10.1356 12.4112L8.67647 13.4623L8.4498 13.6153C8.4073 13.6437 8.35914 13.6607 8.30814 13.6635C8.2033 13.672 8.10697 13.6238 8.04747 13.536C8.00497 13.4737 7.98797 13.3972 8.00497 13.3207C8.01914 13.2442 8.06447 13.179 8.1268 13.1365H8.12964L10.1696 11.7113C10.2971 11.6207 10.3283 11.445 10.2405 11.3175C10.1498 11.19 9.97414 11.1588 9.84664 11.2467L7.8123 12.6662C7.73864 12.7172 7.64797 12.7285 7.56297 12.7002C7.51197 12.6832 7.4213 12.6378 7.37597 12.5132C7.3363 12.4027 7.38447 12.2667 7.50347 12.1788L8.65947 11.4535C8.79264 11.3713 8.8323 11.1957 8.75014 11.0625C8.66797 10.9293 8.4923 10.8897 8.35914 10.9718L7.25414 11.666C7.1323 11.683 6.99347 11.6235 6.9453 11.4677C6.90847 11.3487 6.96514 11.2098 7.0813 11.1333L8.35914 10.2777C9.06747 10.7508 9.61147 10.7367 9.93164 10.7282H10.0648C10.147 10.7282 10.2376 10.7423 10.3651 10.7707C10.6485 10.8302 10.9148 10.8613 11.1556 10.8613C11.5806 10.8613 11.9291 10.7707 12.1586 10.5922C12.3485 10.4448 12.4505 10.2437 12.459 10.0113C12.4816 9.4475 11.983 9.218 11.5013 8.99417C11.2661 8.8865 11.0196 8.77317 10.8043 8.61733C10.7391 8.56917 10.674 8.52667 10.6088 8.487C11.0706 8.40767 11.5013 8.21783 11.8753 7.93733L13.8983 10.3797C13.1928 10.935 12.5695 11.683 12.0453 12.6038H12.0425ZM15.0486 10.1105L14.9551 10.187C14.8786 10.2493 14.7795 10.2805 14.6831 10.272C14.584 10.2635 14.4933 10.2153 14.431 10.1388L12.2323 7.484C12.102 7.32533 12.1246 7.09017 12.2805 6.95983L12.374 6.88333C12.442 6.82667 12.5241 6.79833 12.612 6.79833H12.6488C12.748 6.80683 12.8386 6.855 12.901 6.9315L15.0968 9.58633C15.2271 9.745 15.2045 9.98017 15.0486 10.1105Z" fill="#1A1A18" stroke="#1A1A18" stroke-width="0.3"/>
</svg>
