<svg width="20" height="20" viewBox="0 0 20 20" fill="none" xmlns="http://www.w3.org/2000/svg">
<path d="M17.8389 0H2.16114C0.967616 0 0 0.967616 0 2.16114V17.8389C0 19.0324 0.967616 20 2.16114 20H17.8389C19.0324 20 20 19.0324 20 17.8389V2.16114C20 0.967616 19.0324 0 17.8389 0ZM9.99532 17.5443C5.81506 17.5443 2.42606 14.1553 2.42606 9.97503C2.42606 5.79438 5.81506 2.40577 9.99532 2.40577C14.1756 2.40577 17.5646 5.79438 17.5646 9.97503C17.5646 14.1553 14.1756 17.5443 9.99532 17.5443Z" fill="#FCC200"/>
<path d="M9.99532 17.5443C5.81506 17.5443 2.42606 14.1553 2.42606 9.97503C2.42606 5.79438 5.81506 2.40577 9.99532 2.40577C14.1756 2.40577 17.5646 5.79438 17.5646 9.97503C17.5646 14.1553 14.1756 17.5443 9.99532 17.5443Z" fill="#FCC200"/>
<g clip-path="url(#clip0_172_1476)">
<mask id="mask0_172_1476" style="mask-type:luminance" maskUnits="userSpaceOnUse" x="0" y="0" width="19" height="19">
<path d="M0.999512 0.999758H18.9995V18.9998H0.999512V0.999758Z" fill="white"/>
</mask>
<g mask="url(#mask0_172_1476)">
<path d="M14 9.44551C14 10.8573 13.2184 12.092 12.0516 12.7685V15.6893C11.4051 15.8908 10.716 15.9995 10.0002 16H9.99779C9.28303 16 8.59396 15.8913 7.94842 15.6902V12.7685C6.78157 12.092 6 10.8573 6 9.44551C6 7.94367 6.88394 6.64147 8.17596 6V8.84226L9.99975 9.83571L11.824 8.84226V6C13.1161 6.64147 14 7.94367 14 9.44551Z" stroke="#1A1A18" stroke-miterlimit="10" stroke-linecap="round" stroke-linejoin="round"/>
<path d="M9.94116 15.543V13.1535" stroke="#1A1A18" stroke-miterlimit="10" stroke-linecap="round" stroke-linejoin="round"/>
<path d="M11.4297 18.4404H13.4555C14.013 18.4404 14.5284 18.1431 14.8074 17.6599L18.3219 11.5728C18.6009 11.0899 18.6009 10.4949 18.3219 10.0116L16.427 6.72971C16.3038 6.74809 16.1774 6.75731 16.0489 6.75731C14.6134 6.75731 13.4498 5.5937 13.4498 4.15824C13.4498 3.80316 13.5209 3.46475 13.6502 3.15639C13.5861 3.14827 13.5209 3.14402 13.4555 3.14402H6.42676C5.86886 3.14402 5.35344 3.44172 5.07447 3.92459L1.56032 10.0116C1.28132 10.4949 1.28132 11.0899 1.56032 11.5728L5.07447 17.6599C5.35344 18.1431 5.86886 18.4404 6.42676 18.4404H8.31546" stroke="#1A1A18" stroke-miterlimit="10" stroke-linecap="round" stroke-linejoin="round"/>
<path d="M18.6478 4.15801C18.6478 5.59344 17.4842 6.75708 16.0487 6.75708C14.6133 6.75708 13.4497 5.59344 13.4497 4.15801C13.4497 2.72258 14.6133 1.55895 16.0487 1.55895C17.4842 1.55895 18.6478 2.72258 18.6478 4.15801Z" stroke="#1A1A18" stroke-miterlimit="10" stroke-linecap="round" stroke-linejoin="round"/>
<path d="M14.9556 4.21664L15.6479 4.90894L17.0787 3.47818" stroke="#1A1A18" stroke-miterlimit="10" stroke-linecap="round" stroke-linejoin="round"/>
</g>
</g>
<defs>
<clipPath id="clip0_172_1476">
<rect width="18" height="18" fill="white" transform="translate(0.999756 0.999756)"/>
</clipPath>
</defs>
</svg>
