<svg width="20" height="20" viewBox="0 0 20 20" fill="none" xmlns="http://www.w3.org/2000/svg">
<path d="M17.8389 0H2.16114C0.967616 0 0 0.967616 0 2.16114V17.8389C0 19.0324 0.967616 20 2.16114 20H17.8389C19.0324 20 20 19.0324 20 17.8389V2.16114C20 0.967616 19.0324 0 17.8389 0ZM9.99532 17.5443C5.81506 17.5443 2.42606 14.1553 2.42606 9.97503C2.42606 5.79438 5.81506 2.40577 9.99532 2.40577C14.1756 2.40577 17.5646 5.79438 17.5646 9.97503C17.5646 14.1553 14.1756 17.5443 9.99532 17.5443Z" fill="#FCC200"/>
<path d="M9.99532 17.5443C5.81506 17.5443 2.42606 14.1553 2.42606 9.97503C2.42606 5.79438 5.81506 2.40577 9.99532 2.40577C14.1756 2.40577 17.5646 5.79438 17.5646 9.97503C17.5646 14.1553 14.1756 17.5443 9.99532 17.5443Z" fill="#FCC200"/>
<path d="M17.4557 9.19198C17.4259 8.91736 17.2385 8.68105 16.9809 8.58951C16.7212 8.49797 16.4296 8.56396 16.2358 8.75982L13.4917 11.5039C13.4683 11.5274 13.4491 11.555 13.4321 11.5827C13.3597 11.7104 13.3704 11.8722 13.4662 11.9893C13.4747 11.9978 13.4832 12.0085 13.4917 12.017L14.0069 12.5322L11.1095 12.5152L11.0861 9.60498L11.6076 10.1266C11.6779 10.1968 11.7716 10.233 11.8631 10.233C11.9568 10.233 12.0483 10.1968 12.1186 10.1266L15.8803 6.36483C16.1336 6.1115 16.1571 5.70275 15.9357 5.41748C15.4311 4.76392 14.8286 4.20402 14.1431 3.74844C13.4747 3.30564 12.7423 2.97353 11.9674 2.76277C11.1925 2.55201 10.3921 2.46686 9.5916 2.51156C8.77199 2.55627 7.96727 2.7351 7.20087 3.04378C6.43448 3.35247 5.73195 3.78038 5.10819 4.31472C4.49933 4.83843 3.98201 5.45154 3.56901 6.1413C3.15601 6.83106 2.85797 7.57616 2.68127 8.35959C2.50032 9.16218 2.45561 9.98392 2.54289 10.8035C2.54289 10.8035 2.54289 10.8035 2.54289 10.8057C2.5727 11.0803 2.75365 11.3081 3.01763 11.3996C3.09853 11.4273 3.18156 11.4422 3.26458 11.4422C3.45192 11.4422 3.63714 11.3698 3.76913 11.2378L6.51325 8.49371C6.56434 8.44262 6.59627 8.38301 6.60905 8.31914C6.63672 8.20205 6.60266 8.07432 6.51325 7.98278L5.99806 7.46759L8.89546 7.49101L8.91888 10.3927L8.40582 9.87535C8.40156 9.87109 8.39517 9.86683 8.39092 9.86258C8.38666 9.85832 8.3824 9.85619 8.37814 9.85193C8.37389 9.84767 8.3675 9.84342 8.36111 9.83916C8.35686 9.8349 8.3526 9.83277 8.34834 9.82851C8.34195 9.82426 8.33769 9.82213 8.33131 9.81787C8.32705 9.81574 8.32279 9.81148 8.31641 9.80935C8.31002 9.80723 8.30363 9.80297 8.29938 9.80084C8.29512 9.79871 8.29086 9.79658 8.28447 9.79445C8.27809 9.79232 8.2717 9.79019 8.26531 9.78807C8.26106 9.78594 8.25467 9.78381 8.25041 9.78381C8.24402 9.78168 8.23764 9.78168 8.23125 9.77955C8.22699 9.77742 8.22061 9.77742 8.21635 9.77529C8.20996 9.77316 8.20358 9.77316 8.19719 9.77316C8.19293 9.77316 8.18654 9.77103 8.18229 9.77103C8.1759 9.77103 8.16951 9.77103 8.16313 9.77103C8.15887 9.77103 8.15248 9.77103 8.14823 9.77103C8.14184 9.77103 8.13545 9.77103 8.12907 9.77103C8.12481 9.77103 8.11842 9.77103 8.11416 9.77103C8.10778 9.77103 8.10139 9.77316 8.095 9.77316C8.09075 9.77316 8.08436 9.77529 8.0801 9.77529C8.07371 9.77742 8.06733 9.77742 8.06094 9.77955C8.05668 9.78168 8.0503 9.78168 8.04604 9.78381C8.03965 9.78594 8.03327 9.78807 8.02688 9.79019C8.02262 9.79232 8.01623 9.79445 8.01198 9.79445C8.00559 9.79658 7.9992 9.80084 7.99495 9.80297C7.99069 9.8051 7.9843 9.80723 7.98004 9.80935C7.97366 9.81148 7.9694 9.81574 7.96301 9.82C7.95876 9.82213 7.9545 9.82426 7.94811 9.82851C7.94172 9.83277 7.93747 9.83703 7.93321 9.83916C7.92895 9.84342 7.92469 9.84555 7.92043 9.8498C7.91618 9.85406 7.91192 9.85832 7.90766 9.86258C7.9034 9.86683 7.89915 9.87109 7.89489 9.87535L4.12678 13.6371C3.87131 13.8925 3.84364 14.2992 4.06291 14.5844C4.56745 15.238 5.16993 15.8 5.85542 16.2535C6.52389 16.6963 7.25623 17.0284 8.03114 17.2391C8.67619 17.4137 9.33614 17.5031 10.0003 17.5031C10.1366 17.5031 10.2728 17.4989 10.407 17.4925C11.2287 17.4478 12.0313 17.2689 12.7977 16.9624C13.5641 16.6537 14.2666 16.2258 14.8904 15.6914C15.4992 15.1677 16.0166 14.5546 16.4296 13.8649C16.8426 13.1751 17.1427 12.43 17.3173 11.6466C17.4983 10.8333 17.5451 10.0116 17.4557 9.19198ZM12.5295 16.2811C9.72998 17.4073 6.4877 16.526 4.64197 14.1395L8.15248 10.6354L8.5889 11.0739C8.70599 11.191 8.8614 11.2527 9.02106 11.2527C9.10196 11.2527 9.18499 11.2357 9.26376 11.2038C9.50006 11.1037 9.65121 10.8802 9.65121 10.6332L9.62567 7.37392C9.62354 7.03756 9.34678 6.76293 9.01255 6.7608H9.01042L5.75324 6.73526H5.75111H5.74898C5.49564 6.73526 5.27211 6.88215 5.17631 7.10994C5.08051 7.33986 5.13586 7.61235 5.31256 7.79118L5.75537 8.23399L3.26671 10.7141H3.26458C2.94525 7.71454 4.6739 4.8363 7.47337 3.71012C10.275 2.58395 13.5194 3.4653 15.3651 5.85603L11.8631 9.3559L11.4224 8.91523C11.2457 8.73853 10.9711 8.68318 10.7412 8.77898C10.5091 8.87691 10.358 9.10257 10.3601 9.3559L10.3857 12.6152C10.3878 12.9537 10.6646 13.2326 10.9988 13.2347L14.2581 13.2539H14.2602H14.2624C14.5093 13.2539 14.7328 13.1049 14.8286 12.8728C14.9266 12.6386 14.8755 12.3747 14.6988 12.198L14.256 11.7551L16.7382 9.28139C17.0554 12.2789 15.3268 15.1571 12.5295 16.2811Z" fill="#1A1A18" stroke="#1A1A18" stroke-width="0.2"/>
</svg>
