<svg width="21" height="20" viewBox="0 0 21 20" fill="none" xmlns="http://www.w3.org/2000/svg">
<path d="M18.0102 0H2.33253C1.139 0 0.171387 0.967616 0.171387 2.16114V17.8389C0.171387 19.0324 1.139 20 2.33253 20H18.0102C19.2038 20 20.1714 19.0324 20.1714 17.8389V2.16114C20.1714 0.967616 19.2038 0 18.0102 0ZM10.1667 17.5443C5.98645 17.5443 2.59745 14.1553 2.59745 9.97503C2.59745 5.79438 5.98645 2.40577 10.1667 2.40577C14.347 2.40577 17.736 5.79438 17.736 9.97503C17.736 14.1553 14.347 17.5443 10.1667 17.5443Z" fill="#FCC200"/>
<path d="M10.1667 17.5443C5.98645 17.5443 2.59745 14.1553 2.59745 9.97503C2.59745 5.79438 5.98645 2.40577 10.1667 2.40577C14.347 2.40577 17.736 5.79438 17.736 9.97503C17.736 14.1553 14.347 17.5443 10.1667 17.5443Z" fill="#FCC200"/>
<path d="M16.4189 5.18615L10.3787 2.54943C10.2271 2.48322 10.0544 2.48354 9.90299 2.55028L3.92174 5.187C3.70868 5.28092 3.57129 5.4909 3.57129 5.72266V10.3516C3.57129 12.1009 4.26656 13.8892 5.47884 15.2579C6.0886 15.9463 6.79156 16.491 7.56821 16.877C8.4001 17.2904 9.2759 17.5 10.1713 17.5C11.4251 17.5 12.6453 17.0965 13.7002 16.3331C13.9633 16.1427 14.0214 15.7762 13.8299 15.5146C13.6384 15.2529 13.2698 15.1952 13.0067 15.3856C12.1546 16.0022 11.1742 16.3281 10.1713 16.3281C7.33391 16.3281 4.74986 13.4795 4.74986 10.3516V6.10381L10.143 3.72637L15.5927 6.10534V10.3516C15.5927 11.4305 15.281 12.5225 14.6912 13.5092C14.5249 13.7874 14.6169 14.147 14.8967 14.3123C15.1766 14.4776 15.5381 14.3861 15.7044 14.1079C16.4024 12.9401 16.7713 11.6412 16.7713 10.3516V5.72266C16.7713 5.49016 16.633 5.27964 16.4189 5.18615Z" fill="#1A1A18"/>
<path d="M12.982 7.1144L9.32824 11.6539L7.28004 9.69495C7.04547 9.47063 6.67242 9.4778 6.44682 9.71104C6.22121 9.94427 6.22843 10.3152 6.46299 10.5395L8.53978 12.5258C8.54061 12.5266 8.54146 12.5274 8.54228 12.5282C8.75734 12.7315 9.03569 12.8419 9.33057 12.8419C9.34639 12.8419 9.36222 12.8416 9.37807 12.8409C9.69042 12.8284 9.97728 12.694 10.1858 12.4624C10.1931 12.4544 10.2001 12.4461 10.2069 12.4377L13.9022 7.84661C14.1055 7.59396 14.0644 7.22523 13.8103 7.02302C13.5562 6.82081 13.1854 6.86171 12.982 7.1144Z" fill="#1A1A18"/>
</svg>
