<svg width="20" height="20" viewBox="0 0 20 20" fill="none" xmlns="http://www.w3.org/2000/svg">
<path d="M17.8389 0H2.16114C0.967616 0 0 0.967616 0 2.16114V17.8389C0 19.0324 0.967616 20 2.16114 20H17.8389C19.0324 20 20 19.0324 20 17.8389V2.16114C20 0.967616 19.0324 0 17.8389 0ZM9.99532 17.5443C5.81506 17.5443 2.42606 14.1553 2.42606 9.97503C2.42606 5.79438 5.81506 2.40577 9.99532 2.40577C14.1756 2.40577 17.5646 5.79438 17.5646 9.97503C17.5646 14.1553 14.1756 17.5443 9.99532 17.5443Z" fill="#FCC200"/>
<path d="M9.99532 17.5443C5.81506 17.5443 2.42606 14.1553 2.42606 9.97503C2.42606 5.79438 5.81506 2.40577 9.99532 2.40577C14.1756 2.40577 17.5646 5.79438 17.5646 9.97503C17.5646 14.1553 14.1756 17.5443 9.99532 17.5443Z" fill="#FCC200"/>
<path d="M6.30762 5.87337C6.85778 6.13844 7.50437 5.75182 7.50437 5.15781V3.19092" stroke="#1A1A18" stroke-width="1.35594" stroke-miterlimit="10" stroke-linecap="round" stroke-linejoin="round"/>
<path d="M9.36182 7.27832H10.6368" stroke="#1A1A18" stroke-width="1.35594" stroke-miterlimit="10" stroke-linecap="round" stroke-linejoin="round"/>
<path d="M7.08008 9.79785H12.921" stroke="#1A1A18" stroke-width="1.35594" stroke-miterlimit="10" stroke-linecap="round" stroke-linejoin="round"/>
<path d="M7.08008 12.3169H12.921" stroke="#1A1A18" stroke-width="1.35594" stroke-miterlimit="10" stroke-linecap="round" stroke-linejoin="round"/>
<path d="M11.9235 18.0005C12.8043 18.0005 13.5183 17.3106 13.5183 16.4595C13.5183 15.6084 12.8043 14.9185 11.9235 14.9185C11.0426 14.9185 10.3286 15.6084 10.3286 16.4595C10.3286 17.3106 11.0426 18.0005 11.9235 18.0005Z" stroke="#1A1A18" stroke-width="1.35594" stroke-miterlimit="10" stroke-linecap="round" stroke-linejoin="round"/>
<path d="M16.0001 12.8078V4.6525C16.0001 3.73984 15.2344 3 14.2898 3H5.71022C4.76568 3 4 3.73984 4 4.6525V16.3471C4 17.2598 4.76568 17.9996 5.71022 17.9996H14.2898C15.2343 17.9996 16 17.2598 16 16.3471V15.9857" stroke="#1A1A18" stroke-width="1.35594" stroke-miterlimit="10" stroke-linecap="round" stroke-linejoin="round"/>
</svg>
