<svg width="21" height="21" viewBox="0 0 21 21" fill="none" xmlns="http://www.w3.org/2000/svg">
<path d="M18.0374 0H2.24805C1.04604 0 0.0715332 0.974503 0.0715332 2.17652V17.9658C0.0715332 19.1678 1.04604 20.1424 2.24805 20.1424H18.0374C19.2394 20.1424 20.2139 19.1678 20.2139 17.9658V2.17652C20.2139 0.974503 19.2394 0 18.0374 0ZM10.138 17.6692C5.92798 17.6692 2.51486 14.256 2.51486 10.046C2.51486 5.83562 5.92798 2.4229 10.138 2.4229C14.348 2.4229 17.7611 5.83562 17.7611 10.046C17.7611 14.256 14.348 17.6692 10.138 17.6692Z" fill="#FCC200"/>
<path d="M10.138 17.6692C5.92798 17.6692 2.51486 14.256 2.51486 10.046C2.51486 5.83562 5.92798 2.4229 10.138 2.4229C14.348 2.4229 17.7611 5.83562 17.7611 10.046C17.7611 14.256 14.348 17.6692 10.138 17.6692Z" fill="#FCC200"/>
<path d="M4.94917 10.784C5.31682 10.784 5.61501 11.0878 5.61501 11.4627C5.61501 11.8376 5.31682 12.1415 4.94917 12.1415C4.82771 12.1415 4.40467 12.1415 4.28334 12.1415C3.91557 12.1415 3.6175 11.8376 3.6175 11.4627C3.6175 11.0878 3.91557 10.784 4.28334 10.784H4.94917ZM15.3361 10.784C14.9683 10.784 14.6703 11.0878 14.6703 11.4627C14.6703 11.8376 14.9683 12.1415 15.3361 12.1415H16.0019C16.3696 12.1415 16.6677 11.8376 16.6677 11.4627C16.6677 11.0878 16.3696 10.784 16.0019 10.784C15.8805 10.784 15.4574 10.784 15.3361 10.784ZM17.3335 11.4288V9.93554C17.3335 9.18707 16.7362 8.57805 16.0019 8.57805H4.28334C3.5491 8.57805 2.95166 9.18707 2.95166 9.93554V13.8044H6.28085V12.1415C6.28085 11.2058 7.02758 10.4446 7.94531 10.4446H12.2733C13.1911 10.4446 13.9378 11.2058 13.9378 12.1415V13.8044H17.9993C18.3671 13.8044 18.6652 14.1082 18.6652 14.4831V16.8925C18.6652 17.2674 18.3671 17.5713 17.9993 17.5713H15.3361C14.9683 17.5713 14.6703 17.2674 14.6703 16.8925V15.1617H5.61501V16.8925C5.61501 17.2674 5.31682 17.5713 4.94917 17.5713H2.28583C1.91805 17.5713 1.61999 17.2674 1.61999 16.8925V9.93554C1.61999 9.13404 1.96266 8.41287 2.50625 7.91548C2.16163 7.68229 1.89556 7.39263 1.704 7.04159C1.52518 6.71402 1.6408 6.30067 1.96201 6.11839C2.28335 5.93611 2.68884 6.05397 2.86765 6.38154C2.97494 6.57801 3.13568 6.7343 3.36638 6.8625L4.18866 4.675C4.51482 3.80721 5.241 3.17686 6.13117 2.98888C7.03291 2.79838 8.47226 2.57129 10.2092 2.57129C11.9237 2.57129 13.3061 2.79307 14.1639 2.9792C15.046 3.17049 15.767 3.79727 16.0925 4.65565L16.9241 6.84924C17.1458 6.71839 17.3132 6.55653 17.4296 6.36033C17.6199 6.03965 18.0292 5.93678 18.344 6.13072C18.6585 6.32467 18.7594 6.74199 18.5692 7.06281C18.3702 7.39807 18.1028 7.6803 17.7711 7.90845C18.3191 8.40611 18.6652 9.13019 18.6652 9.93554V11.4288C18.6652 11.8037 18.3671 12.1075 17.9993 12.1075C17.6317 12.1075 17.3335 11.8037 17.3335 11.4288ZM4.65787 7.22056H15.6372L14.8504 5.14509C14.6876 4.71583 14.3273 4.40244 13.8867 4.30686C13.0915 4.13439 11.808 3.92878 10.2092 3.92878C8.58514 3.92878 7.24215 4.14049 6.4014 4.318C5.95755 4.41185 5.59525 4.72684 5.43217 5.16073L4.65787 7.22056ZM17.3335 16.2138V15.1617H16.0019V16.2138H17.3335ZM7.61239 13.8044H8.44469V13.1596C8.44469 12.7847 8.74289 12.4808 9.11053 12.4808C9.4783 12.4808 9.77637 12.7847 9.77637 13.1596V13.8044H10.4422V13.1596C10.4422 12.7847 10.7403 12.4808 11.108 12.4808C11.4758 12.4808 11.7739 12.7847 11.7739 13.1596V13.8044H12.6062V12.1415C12.6062 11.9543 12.4568 11.8021 12.2733 11.8021H7.94531C7.76182 11.8021 7.61239 11.9543 7.61239 12.1415V13.8044ZM2.95166 15.1617V16.2138H4.28334V15.1617H2.95166Z" fill="#1A1A18"/>
</svg>
