<svg width="20" height="21" viewBox="0 0 20 21" fill="none" xmlns="http://www.w3.org/2000/svg">
<path d="M17.8389 0.5H2.16114C0.967616 0.5 0 1.46762 0 2.66114V18.3389C0 19.5324 0.967616 20.5 2.16114 20.5H17.8389C19.0324 20.5 20 19.5324 20 18.3389V2.66114C20 1.46762 19.0324 0.5 17.8389 0.5ZM9.99532 18.0443C5.81506 18.0443 2.42606 14.6553 2.42606 10.475C2.42606 6.29438 5.81506 2.90577 9.99532 2.90577C14.1756 2.90577 17.5646 6.29438 17.5646 10.475C17.5646 14.6553 14.1756 18.0443 9.99532 18.0443Z" fill="#FCC200"/>
<path d="M9.99532 18.0443C5.81506 18.0443 2.42606 14.6553 2.42606 10.475C2.42606 6.29438 5.81506 2.90577 9.99532 2.90577C14.1756 2.90577 17.5646 6.29438 17.5646 10.475C17.5646 14.6553 14.1756 18.0443 9.99532 18.0443Z" fill="#FCC200"/>
<path d="M15.3033 5.19668C13.8867 3.78015 12.0033 3 10 3C7.99668 3 6.11327 3.78015 4.69668 5.19668C3.28015 6.61327 2.5 8.49668 2.5 10.5C2.5 12.5033 3.28015 14.3867 4.69668 15.8033C6.11327 17.2199 7.99668 18 10 18C11.3715 18 12.7134 17.6263 13.8807 16.9192C14.1575 16.7515 14.246 16.3912 14.0783 16.1144C13.9107 15.8376 13.5503 15.7492 13.2736 15.9168C12.2893 16.513 11.1574 16.8281 10 16.8281C6.51065 16.8281 3.67188 13.9893 3.67188 10.5C3.67188 7.01065 6.51065 4.17188 10 4.17188C13.4893 4.17188 16.3281 7.01065 16.3281 10.5C16.3281 11.7477 15.9571 12.9622 15.2551 14.0123C15.0752 14.2813 15.1475 14.6452 15.4165 14.825C15.6856 15.0049 16.0494 14.9326 16.2293 14.6636C17.0606 13.4201 17.5 11.9804 17.5 10.5C17.5 8.49668 16.7199 6.61327 15.3033 5.19668Z" fill="#1A1A18"/>
<path d="M10.0004 5.22607C9.67677 5.22607 9.41444 5.4884 9.41444 5.81201V10.2568L7.26587 12.4054C7.03703 12.6342 7.03703 13.0052 7.26587 13.234C7.38027 13.3484 7.53021 13.4056 7.68018 13.4056C7.83015 13.4056 7.9801 13.3484 8.0945 13.234L10.4147 10.9138C10.5246 10.804 10.5863 10.6549 10.5863 10.4995V5.81201C10.5863 5.4884 10.324 5.22607 10.0004 5.22607Z" fill="#1A1A18"/>
</svg>
