<svg width="67" height="50" viewBox="0 0 67 50" fill="none" xmlns="http://www.w3.org/2000/svg">
<ellipse cx="37.4288" cy="25" rx="24.7064" ry="25" fill="#1A1A18"/>
<path d="M25.293 7.05149L25.7655 13.1015C38.3283 12.7184 46.2815 14.4061 50.6051 15.3492L52.514 10.3529C52.8273 9.53304 52.491 8.602 51.7047 8.21173C42.4107 3.59882 32.407 4.10209 26.6373 5.23567C25.7887 5.40237 25.2256 6.18932 25.293 7.05149Z" fill="#FCC200" stroke="#1A1A18" stroke-width="1.32325"/>
<path d="M38.3079 13.5676C46.1788 14.2217 53.2186 15.6052 58.2323 17.3018C60.7438 18.1517 62.7108 19.068 64.0164 19.9873C65.3651 20.9369 65.8116 21.7447 65.7628 22.348C65.7138 22.9513 65.143 23.6745 63.6592 24.3888C62.2228 25.0802 60.1345 25.6605 57.5195 26.0844C52.2994 26.9305 45.1309 27.1333 37.26 26.4793C29.3892 25.8252 22.3494 24.4417 17.3357 22.7451C14.824 21.8952 12.8573 20.978 11.5517 20.0587C10.2028 19.1089 9.7563 18.3012 9.80526 17.6979C9.85433 17.0947 10.4251 16.3714 11.9089 15.6571C13.3453 14.9658 15.4336 14.3864 18.0485 13.9625C23.2686 13.1164 30.4371 12.9136 38.3079 13.5676Z" fill="#FCC200" stroke="#1A1A18" stroke-width="1.32325"/>
<path d="M9.90942 18.4298C9.90942 18.4298 31.1387 14.5634 65.6163 22.7207" stroke="#1A1A18" stroke-width="1.32325"/>
<path d="M24.7143 25.1541C24.7143 22.6825 25.6194 18.7577 26.0743 17.5637C26.0743 17.5637 31.089 17.5206 36.1462 17.9076C41.2034 18.2946 46.2605 19.1547 46.2605 19.1547C45.8114 29.5506 41.7133 40.6129 33.6969 41.7548C28.3568 42.5155 25.983 38.4164 25.3822 35.8666C14.8848 34.3813 5.70692 37.0055 2 38.9709C8.99609 27.4343 19.1691 25.8294 24.7143 25.1541Z" fill="#FCC200" stroke="#1A1A18" stroke-width="1.32325"/>
<path d="M32.8402 20.8802C34.7591 21.1727 36.1756 23.1997 35.8262 25.5474C35.4767 27.8952 33.5328 29.411 31.6139 29.1185C29.6952 28.8259 28.2796 26.7981 28.629 24.4505C28.9785 22.1029 30.9214 20.5879 32.8402 20.8802Z" fill="#FCC200" stroke="#1A1A18" stroke-width="1.32325"/>
<path d="M28.8605 23.9969C28.4641 23.7802 27.146 23.3842 25.0455 23.5342" stroke="#1A1A18" stroke-width="1.32325"/>
<path d="M54.089 42.462C47.5227 37.3077 47.8445 25.0394 48.906 19.7374L46.2185 19.3853C44.0686 37.707 35.275 42.9557 31.3955 41.7309L29.5173 47.9233C42.2243 51.8365 51.4967 45.8161 54.089 42.462Z" fill="#FCC200" stroke="#1A1A18" stroke-width="1.32325"/>
<path d="M26.3779 36.0083C38.2753 37.5372 41.1097 24.7728 41.7133 18.5092L46.1311 19.2007C45.4024 36.9897 35.7752 42.7301 31.3472 41.93C27.6905 41.2693 26.4042 37.8926 26.3779 36.0083Z" fill="#FCC200" stroke="#1A1A18" stroke-width="1.32325"/>
</svg>
