<svg width="30" height="30" viewBox="0 0 30 30" fill="none" xmlns="http://www.w3.org/2000/svg">
<mask id="mask0_179_364" style="mask-type:alpha" maskUnits="userSpaceOnUse" x="0" y="0" width="30" height="30">
<rect width="30" height="30" rx="7.5" fill="#D9D9D9"/>
</mask>
<g mask="url(#mask0_179_364)">
<path d="M19.7369 17.1572C19.7922 17.2559 19.7922 17.7157 19.6027 18.2545C19.4132 18.7934 18.6553 19.2414 18.0533 19.3677C17.6408 19.4565 17.102 19.5256 15.2902 18.7756C12.9612 17.8124 11.4672 15.4539 11.3507 15.3019C11.2343 15.1499 10.4132 14.0526 10.4132 12.9217C10.4026 12.5621 10.4691 12.2045 10.6084 11.8729C10.7476 11.5413 10.9563 11.2434 11.2204 10.9993C11.4424 10.8034 11.7319 10.7015 12.0277 10.7151C12.1244 10.7151 12.2132 10.7151 12.2922 10.7249C12.5231 10.7249 12.6395 10.7486 12.7935 11.1197C12.9908 11.5795 13.4468 12.7124 13.504 12.8289C13.5425 12.8924 13.5654 12.9642 13.5709 13.0383C13.5763 13.1123 13.5643 13.1867 13.5356 13.2552C13.4714 13.3895 13.3854 13.5122 13.281 13.6184C13.1645 13.7526 13.054 13.8552 12.9376 13.9993C12.8211 14.1434 12.7106 14.2598 12.8448 14.4907C13.1913 15.0811 13.6229 15.6171 14.1257 16.0815C14.6682 16.5753 15.2999 16.9611 15.9869 17.2184C16.0776 17.2616 16.1793 17.2764 16.2786 17.2609C16.3779 17.2454 16.4702 17.2003 16.5435 17.1315C16.7638 16.8697 16.9701 16.5963 17.1612 16.3124C17.2177 16.2189 17.3069 16.1495 17.4115 16.1178C17.5161 16.0861 17.6287 16.0943 17.7277 16.1407C17.9408 16.2157 19.0678 16.7723 19.3066 16.8888C19.5454 17.0052 19.6757 17.0605 19.7369 17.1572Z" fill="#1A1A18"/>
<path d="M27.6316 0H2.36842C1.74028 0 1.13786 0.249529 0.693694 0.693694C0.249529 1.13786 0 1.74028 0 2.36842L0 27.6316C0 28.2597 0.249529 28.8621 0.693694 29.3063C1.13786 29.7505 1.74028 30 2.36842 30H27.6316C28.2597 30 28.8621 29.7505 29.3063 29.3063C29.7505 28.8621 30 28.2597 30 27.6316V2.36842C30 1.74028 29.7505 1.13786 29.3063 0.693694C28.8621 0.249529 28.2597 0 27.6316 0ZM15 22.8947C13.4556 22.8976 11.9449 22.4437 10.6579 21.5901L7.62434 22.5612L8.61119 19.6283C7.75872 18.4503 7.24815 17.0597 7.13581 15.61C7.02346 14.1602 7.3137 12.7076 7.97451 11.4123C8.63531 10.117 9.64102 9.02939 10.8807 8.26939C12.1204 7.5094 13.5459 7.10654 15 7.10526C17.0938 7.10526 19.1019 7.93703 20.5824 9.41758C22.063 10.8981 22.8947 12.9062 22.8947 15C22.8947 17.0938 22.063 19.1019 20.5824 20.5824C19.1019 22.063 17.0938 22.8947 15 22.8947Z" fill="#1A1A18"/>
</g>
</svg>
