<svg width="30" height="30" viewBox="0 0 30 30" fill="none" xmlns="http://www.w3.org/2000/svg">
<mask id="mask0_179_374" style="mask-type:alpha" maskUnits="userSpaceOnUse" x="0" y="0" width="30" height="30">
<rect width="30" height="30" rx="7.5" fill="#D9D9D9"/>
</mask>
<g mask="url(#mask0_179_374)">
<path d="M27.2165 0H2.78352C2.04529 0 1.33729 0.293263 0.815275 0.815275C0.293263 1.33729 0 2.04529 0 2.78352L0 27.2165C0 27.9547 0.293263 28.6627 0.815275 29.1847C1.33729 29.7067 2.04529 30 2.78352 30H27.2165C27.9547 30 28.6627 29.7067 29.1847 29.1847C29.7067 28.6627 30 27.9547 30 27.2165V2.78352C30 2.04529 29.7067 1.33729 29.1847 0.815275C28.6627 0.293263 27.9547 0 27.2165 0ZM23.6455 20.3591C23.2091 20.4205 21.075 20.3591 20.9642 20.3591C20.4125 20.3663 19.8802 20.1556 19.483 19.7727C19.033 19.3381 18.6307 18.8608 18.1909 18.4091C18.0613 18.2704 17.9205 18.1427 17.7699 18.0273C17.4188 17.758 17.071 17.8176 16.9057 18.2335C16.7766 18.6811 16.6865 19.1391 16.6364 19.6023C16.6074 20.0216 16.3415 20.2841 15.871 20.3131C15.5795 20.3284 15.2881 20.3352 15 20.3267C13.95 20.321 12.9165 20.0656 11.9847 19.5818C10.9761 19.0204 10.0973 18.2525 9.40568 17.3284C8.26875 15.8761 7.36023 14.2807 6.54886 12.6358C6.50625 12.5523 5.67443 10.783 5.65398 10.6994C5.57898 10.4216 5.65398 10.154 5.88409 10.0602C6.03068 10.004 8.77159 10.0602 8.81761 10.0602C9.02153 10.0588 9.22061 10.1223 9.38607 10.2415C9.55153 10.3607 9.6748 10.5294 9.73807 10.7233C10.2452 12.0204 10.9389 13.2367 11.7972 14.3335C11.9174 14.4796 12.058 14.6076 12.2148 14.7136C12.4381 14.867 12.6494 14.8142 12.7415 14.5551C12.8507 14.198 12.9148 13.8287 12.9324 13.4557C12.9477 12.7159 12.9324 12.2301 12.8915 11.4903C12.8642 11.0165 12.6972 10.6023 11.9983 10.4761C11.7835 10.4369 11.7648 10.2597 11.9028 10.0824C12.1909 9.71591 12.5847 9.65625 13.0261 9.63409C13.6841 9.59659 14.342 9.62216 15 9.63409H15.1432C15.4295 9.63305 15.7152 9.66218 15.9955 9.72102C16.1613 9.75487 16.3117 9.84134 16.4244 9.96756C16.5371 10.0938 16.6061 10.253 16.621 10.4216C16.6549 10.6082 16.6692 10.7979 16.6636 10.9875C16.6466 11.7937 16.6074 12.6017 16.5989 13.408C16.5909 13.7279 16.6201 14.0476 16.6858 14.3608C16.7795 14.7903 17.0744 14.8977 17.3676 14.5875C17.7479 14.1846 18.0961 13.7526 18.4091 13.2955C18.9644 12.4675 19.422 11.5781 19.7727 10.6449C19.9636 10.1659 20.1136 10.0602 20.625 10.0602H23.533C23.7059 10.0572 23.8782 10.0802 24.0443 10.1284C24.1031 10.1439 24.1581 10.1713 24.2058 10.2089C24.2534 10.2466 24.2928 10.2937 24.3215 10.3473C24.3501 10.4009 24.3674 10.4599 24.3722 10.5205C24.377 10.5811 24.3693 10.642 24.3494 10.6994C24.2063 11.3369 23.8619 11.8807 23.4972 12.404C22.9057 13.2409 22.2818 14.0574 21.6767 14.8841C21.6039 14.991 21.5373 15.1019 21.4773 15.2165C21.2489 15.629 21.2659 15.8591 21.5966 16.2C22.125 16.7437 22.6892 17.2517 23.1989 17.8108C23.5727 18.2176 23.9103 18.6562 24.208 19.1216C24.571 19.708 24.3409 20.2602 23.6455 20.3591Z" fill="#1A1A18"/>
<path d="M26.7583 0H3.24171C1.45142 0 0 1.45142 0 3.24171V26.7583C0 28.5486 1.45142 30 3.24171 30H26.7583C28.5486 30 30 28.5486 30 26.7583V3.24171C30 1.45142 28.5486 0 26.7583 0ZM14.993 26.3164C8.72259 26.3164 3.6391 21.2329 3.6391 14.9625C3.6391 8.69157 8.72259 3.60866 14.993 3.60866C21.2634 3.60866 26.3469 8.69157 26.3469 14.9625C26.3469 21.2329 21.2634 26.3164 14.993 26.3164Z" fill="#1A1A18"/>
<path d="M14.993 26.3164C8.72259 26.3164 3.6391 21.2329 3.6391 14.9625C3.6391 8.69157 8.72259 3.60866 14.993 3.60866C21.2634 3.60866 26.3469 8.69157 26.3469 14.9625C26.3469 21.2329 21.2634 26.3164 14.993 26.3164Z" fill="#1A1A18"/>
<path fill-rule="evenodd" clip-rule="evenodd" d="M22.7921 9.64896C22.5426 12.1793 21.4635 18.3188 20.9142 21.1527C20.6818 22.3519 20.2247 22.7535 19.7813 22.7931C18.8193 22.878 18.088 22.1787 17.1559 21.589C15.6976 20.666 14.8731 20.0912 13.4575 19.1906C11.8205 18.1497 12.8816 17.5773 13.8146 16.6421C14.0581 16.3971 18.299 12.6733 18.3811 12.336C18.3913 12.2939 18.4007 12.1364 18.3042 12.0531C18.2076 11.9698 18.0641 11.9979 17.9607 12.021C17.8146 12.0531 15.484 13.5402 10.9696 16.4821C10.3083 16.92 9.70945 17.1336 9.17206 17.1229C8.58085 17.1105 7.44201 16.7996 6.59621 16.534C5.55818 16.2082 4.73288 16.0359 4.80464 15.4833C4.84223 15.1946 5.25318 14.9002 6.03832 14.5991C10.8696 12.5669 14.0914 11.2267 15.7035 10.5801C20.3068 8.73183 21.2628 8.41017 21.8864 8.40028C22.0231 8.3978 22.3299 8.42997 22.5289 8.58585C22.6964 8.71698 22.7425 8.8943 22.7647 9.01884C22.7869 9.14338 22.8143 9.4271 22.7921 9.64896Z" fill="#FCC200"/>
</g>
</svg>
