<svg width="30" height="30" viewBox="0 0 30 30" fill="none" xmlns="http://www.w3.org/2000/svg">
<mask id="mask0_179_384" style="mask-type:alpha" maskUnits="userSpaceOnUse" x="0" y="0" width="30" height="30">
<rect width="30" height="30" rx="7.5" fill="#D9D9D9"/>
</mask>
<g mask="url(#mask0_179_384)">
<path d="M26.7583 0H3.24171C1.45142 0 0 1.45142 0 3.24171V26.7583C0 28.5486 1.45142 30 3.24171 30H26.7583C28.5486 30 30 28.5486 30 26.7583V3.24171C30 1.45142 28.5486 0 26.7583 0ZM14.993 26.3164C8.72259 26.3164 3.6391 21.2329 3.6391 14.9625C3.6391 8.69157 8.72259 3.60866 14.993 3.60866C21.2634 3.60866 26.3469 8.69157 26.3469 14.9625C26.3469 21.2329 21.2634 26.3164 14.993 26.3164Z" fill="#1A1A18"/>
<path d="M14.993 26.3164C8.72259 26.3164 3.6391 21.2329 3.6391 14.9625C3.6391 8.69157 8.72259 3.60866 14.993 3.60866C21.2634 3.60866 26.3469 8.69157 26.3469 14.9625C26.3469 21.2329 21.2634 26.3164 14.993 26.3164Z" fill="#1A1A18"/>
<path d="M26.2518 14.7777C26.2518 14.6652 26.1604 14.5721 26.0479 14.5668C22.0111 14.4139 19.5543 13.899 17.8356 12.1803C16.1133 10.458 15.6002 7.9994 15.4473 3.95386C15.4438 3.84138 15.3506 3.75 15.2364 3.75H14.7654C14.6529 3.75 14.5598 3.84138 14.5545 3.95386C14.4016 7.99764 13.8885 10.458 12.1662 12.1803C10.4457 13.9007 7.9906 14.4139 3.95386 14.5668C3.84138 14.5703 3.75 14.6635 3.75 14.7777V15.2487C3.75 15.3612 3.84138 15.4543 3.95386 15.4596C7.9906 15.6125 10.4475 16.1274 12.1662 17.8461C13.8849 19.5648 14.3981 22.0165 14.5528 26.0461C14.5563 26.1586 14.6494 26.25 14.7636 26.25H15.2364C15.3489 26.25 15.442 26.1586 15.4473 26.0461C15.6019 22.0165 16.1151 19.5648 17.8338 17.8461C19.5543 16.1256 22.0094 15.6125 26.0461 15.4596C26.1587 15.456 26.2501 15.3629 26.2501 15.2487V14.7777H26.2518Z" fill="#FCC200"/>
</g>
</svg>
