<svg width="50" height="50" viewBox="0 0 50 50" fill="none" xmlns="http://www.w3.org/2000/svg">
<mask id="mask0_175_21" style="mask-type:alpha" maskUnits="userSpaceOnUse" x="0" y="0" width="50" height="50">
<rect width="50" height="50" rx="12.5" fill="#D9D9D9"/>
</mask>
<g mask="url(#mask0_175_21)">
<path d="M45.3608 0H4.6392C3.40881 0 2.22881 0.488772 1.35879 1.35879C0.488772 2.22881 0 3.40881 0 4.6392L0 45.3608C0 46.5912 0.488772 47.7712 1.35879 48.6412C2.22881 49.5112 3.40881 50 4.6392 50H45.3608C46.5912 50 47.7712 49.5112 48.6412 48.6412C49.5112 47.7712 50 46.5912 50 45.3608V4.6392C50 3.40881 49.5112 2.22881 48.6412 1.35879C47.7712 0.488772 46.5912 0 45.3608 0ZM39.4091 33.9318C38.6818 34.0341 35.125 33.9318 34.9403 33.9318C34.0208 33.9439 33.1337 33.5927 32.4716 32.9545C31.7216 32.2301 31.0511 31.4347 30.3182 30.6818C30.1022 30.4507 29.8675 30.2379 29.6165 30.0455C29.0312 29.5966 28.4517 29.696 28.1761 30.3892C27.961 31.1352 27.8108 31.8985 27.7273 32.6705C27.679 33.3693 27.2358 33.8068 26.4517 33.8551C25.9659 33.8807 25.4801 33.892 25 33.8778C23.2501 33.8683 21.5275 33.4427 19.9744 32.6364C18.2935 31.7007 16.8289 30.4209 15.6761 28.8807C13.7812 26.4602 12.267 23.8011 10.9148 21.0597C10.8437 20.9205 9.45739 17.9716 9.4233 17.8324C9.2983 17.3693 9.4233 16.9233 9.80682 16.767C10.0511 16.6733 14.6193 16.767 14.696 16.767C15.0359 16.7647 15.3677 16.8706 15.6434 17.0692C15.9192 17.2679 16.1247 17.5491 16.2301 17.8722C17.0753 20.0341 18.2314 22.0611 19.6619 23.8892C19.8623 24.1327 20.0967 24.3461 20.358 24.5227C20.7301 24.7784 21.0824 24.6903 21.2358 24.2585C21.4178 23.6634 21.5247 23.0478 21.554 22.4261C21.5795 21.1932 21.554 20.3835 21.4858 19.1506C21.4403 18.3608 21.1619 17.6705 19.9972 17.4602C19.6392 17.3949 19.608 17.0994 19.8381 16.804C20.3182 16.1932 20.9744 16.0938 21.7102 16.0568C22.8068 15.9943 23.9034 16.0369 25 16.0568H25.2386C25.7159 16.0551 26.192 16.1036 26.6591 16.2017C26.9354 16.2581 27.1862 16.4022 27.374 16.6126C27.5619 16.823 27.6768 17.0884 27.7017 17.3693C27.7581 17.6804 27.7819 17.9965 27.7727 18.3125C27.7443 19.6562 27.679 21.0028 27.6648 22.3466C27.6516 22.8798 27.7002 23.4127 27.8097 23.9347C27.9659 24.6506 28.4574 24.8295 28.946 24.3125C29.5799 23.641 30.1602 22.921 30.6818 22.1591C31.6073 20.7792 32.37 19.2968 32.9545 17.7415C33.2727 16.9432 33.5227 16.767 34.375 16.767H39.2216C39.5098 16.762 39.7971 16.8003 40.0739 16.8807C40.1718 16.9064 40.2634 16.9521 40.3429 17.0149C40.4224 17.0777 40.4881 17.1562 40.5358 17.2456C40.5836 17.3349 40.6123 17.4331 40.6203 17.5341C40.6284 17.6351 40.6154 17.7366 40.5824 17.8324C40.3438 18.8949 39.7699 19.8011 39.1619 20.6733C38.1761 22.0682 37.1364 23.429 36.1278 24.8068C36.0065 24.9849 35.8955 25.1699 35.7955 25.3608C35.4148 26.0483 35.4432 26.4318 35.9943 27C36.875 27.9062 37.8153 28.7528 38.6648 29.6847C39.2878 30.3626 39.8505 31.0936 40.3466 31.8693C40.9517 32.8466 40.5682 33.767 39.4091 33.9318Z" fill="white"/>
<path d="M44.5972 0H5.40285C2.41904 0 0 2.41904 0 5.40285V44.5972C0 47.581 2.41904 50 5.40285 50H44.5972C47.581 50 50 47.581 50 44.5972V5.40285C50 2.41904 47.581 0 44.5972 0ZM24.9883 43.8607C14.5377 43.8607 6.06516 35.3882 6.06516 24.9376C6.06516 14.486 14.5377 6.01444 24.9883 6.01444C35.4389 6.01444 43.9114 14.486 43.9114 24.9376C43.9114 35.3882 35.4389 43.8607 24.9883 43.8607Z" fill="white"/>
<path d="M24.9883 43.8607C14.5377 43.8607 6.06516 35.3882 6.06516 24.9376C6.06516 14.486 14.5377 6.01444 24.9883 6.01444C35.4389 6.01444 43.9114 14.486 43.9114 24.9376C43.9114 35.3882 35.4389 43.8607 24.9883 43.8607Z" fill="white"/>
<path fill-rule="evenodd" clip-rule="evenodd" d="M37.9868 16.0816C37.571 20.2988 35.7726 30.5313 34.857 35.2544C34.4697 37.2531 33.7079 37.9225 32.9689 37.9885C31.3656 38.1301 30.1467 36.9644 28.5932 35.9816C26.1626 34.4434 24.7885 33.4853 22.4291 31.9843C19.7009 30.2495 21.4694 29.2956 23.0243 27.7368C23.4301 27.3285 30.4984 21.1222 30.6351 20.56C30.6522 20.4899 30.6679 20.2274 30.507 20.0885C30.3461 19.9497 30.1068 19.9964 29.9345 20.0349C29.691 20.0885 25.8066 22.5669 18.2827 27.4701C17.1806 28.2 16.1824 28.556 15.2868 28.5382C14.3014 28.5175 12.4034 27.9993 10.9937 27.5567C9.26363 27.0137 7.88813 26.7264 8.00774 25.8055C8.07039 25.3244 8.75529 24.8336 10.0639 24.3319C18.1161 20.9449 23.4857 18.7112 26.1726 17.6335C33.8446 14.553 35.438 14.017 36.4774 14.0005C36.7052 13.9963 37.2164 14.0499 37.5482 14.3097C37.8273 14.5283 37.9042 14.8238 37.9412 15.0314C37.9782 15.239 38.0238 15.7118 37.9868 16.0816Z" fill="#1A1A18"/>
</g>
</svg>
