<svg width="50" height="50" viewBox="0 0 50 50" fill="none" xmlns="http://www.w3.org/2000/svg">
<mask id="mask0_172_1414" style="mask-type:alpha" maskUnits="userSpaceOnUse" x="0" y="0" width="50" height="50">
<rect width="50" height="50" rx="12.5" fill="#D9D9D9"/>
</mask>
<g mask="url(#mask0_172_1414)">
<path d="M32.8948 28.5953C32.9869 28.7598 32.9869 29.5262 32.6711 30.4242C32.3554 31.3223 31.0922 32.069 30.0889 32.2795C29.4014 32.4275 28.5034 32.5427 25.4836 31.2927C21.6021 29.6874 19.1119 25.7565 18.9179 25.5032C18.7238 25.2499 17.3554 23.421 17.3554 21.5361C17.3376 20.9369 17.4485 20.3409 17.6806 19.7882C17.9127 19.2355 18.2606 18.739 18.7007 18.3321C19.0707 18.0056 19.5532 17.8358 20.0461 17.8585C20.2073 17.8585 20.3554 17.8585 20.4869 17.8749C20.8718 17.8749 21.0659 17.9144 21.3225 18.5328C21.6514 19.2992 22.4113 21.1874 22.5067 21.3815C22.5708 21.4874 22.6089 21.607 22.6181 21.7304C22.6272 21.8539 22.6071 21.9778 22.5593 22.092C22.4523 22.3159 22.3089 22.5204 22.135 22.6973C21.9409 22.921 21.7567 23.092 21.5626 23.3321C21.3685 23.5723 21.1843 23.7664 21.408 24.1512C21.9855 25.1351 22.7048 26.0285 23.5429 26.8025C24.4471 27.6255 25.4998 28.2685 26.6448 28.6973C26.7961 28.7693 26.9655 28.794 27.131 28.7682C27.2965 28.7424 27.4504 28.6672 27.5725 28.5525C27.9397 28.1162 28.2834 27.6605 28.6021 27.1874C28.6962 27.0314 28.8448 26.9159 29.0191 26.863C29.1935 26.8102 29.3812 26.8238 29.5461 26.9012C29.9014 27.0262 31.7797 27.9539 32.1777 28.1479C32.5757 28.342 32.7929 28.4341 32.8948 28.5953Z" fill="white"/>
<path d="M46.0526 0H3.94737C2.90046 0 1.89643 0.415882 1.15616 1.15616C0.415882 1.89643 0 2.90046 0 3.94737L0 46.0526C0 47.0995 0.415882 48.1036 1.15616 48.8438C1.89643 49.5841 2.90046 50 3.94737 50H46.0526C47.0995 50 48.1036 49.5841 48.8438 48.8438C49.5841 48.1036 50 47.0995 50 46.0526V3.94737C50 2.90046 49.5841 1.89643 48.8438 1.15616C48.1036 0.415882 47.0995 0 46.0526 0ZM25 38.1579C22.4261 38.1627 19.9082 37.4062 17.7632 35.9836L12.7072 37.602L14.352 32.7138C12.9312 30.7505 12.0803 28.4328 11.893 26.0166C11.7058 23.6003 12.1895 21.1793 13.2908 19.0205C14.3922 16.8617 16.0684 15.049 18.1345 13.7823C20.2007 12.5157 22.5765 11.8442 25 11.8421C28.4897 11.8421 31.8365 13.2284 34.304 15.696C36.7716 18.1635 38.1579 21.5103 38.1579 25C38.1579 28.4897 36.7716 31.8365 34.304 34.304C31.8365 36.7716 28.4897 38.1579 25 38.1579Z" fill="white"/>
</g>
</svg>
