<svg width="20" height="20" viewBox="0 0 20 20" fill="none" xmlns="http://www.w3.org/2000/svg">
<path d="M17.8389 0H2.16114C0.967616 0 0 0.967616 0 2.16114V17.8389C0 19.0324 0.967616 20 2.16114 20H17.8389C19.0324 20 20 19.0324 20 17.8389V2.16114C20 0.967616 19.0324 0 17.8389 0ZM9.99532 17.5443C5.81506 17.5443 2.42606 14.1553 2.42606 9.97503C2.42606 5.79438 5.81506 2.40577 9.99532 2.40577C14.1756 2.40577 17.5646 5.79438 17.5646 9.97503C17.5646 14.1553 14.1756 17.5443 9.99532 17.5443Z" fill="#FCC200"/>
<path d="M9.99532 17.5443C5.81506 17.5443 2.42606 14.1553 2.42606 9.97503C2.42606 5.79438 5.81506 2.40577 9.99532 2.40577C14.1756 2.40577 17.5646 5.79438 17.5646 9.97503C17.5646 14.1553 14.1756 17.5443 9.99532 17.5443Z" fill="#FCC200"/>
<path d="M9.72 2.7C12.98 2.7 15.12 4.56 15.12 7.54C15.12 12.54 7.68 10.88 7.08 14.2H15.3V17H4.08V15.14C4.08 7.96 12.32 11.06 12.32 7.4C12.32 6.14 11.24 5.38 9.7 5.38C7.96 5.38 6.88 6.44 6.88 8.3H4.08C4.08 4.92 6.38 2.7 9.72 2.7Z" fill="#1A1A18"/>
</svg>
