<svg width="20" height="20" viewBox="0 0 20 20" fill="none" xmlns="http://www.w3.org/2000/svg">
<path d="M17.8389 0H2.16114C0.967616 0 0 0.967616 0 2.16114V17.8389C0 19.0324 0.967616 20 2.16114 20H17.8389C19.0324 20 20 19.0324 20 17.8389V2.16114C20 0.967616 19.0324 0 17.8389 0ZM9.99532 17.5443C5.81506 17.5443 2.42606 14.1553 2.42606 9.97503C2.42606 5.79438 5.81506 2.40577 9.99532 2.40577C14.1756 2.40577 17.5646 5.79438 17.5646 9.97503C17.5646 14.1553 14.1756 17.5443 9.99532 17.5443Z" fill="#FCC200"/>
<path d="M9.99532 17.5443C5.81506 17.5443 2.42606 14.1553 2.42606 9.97503C2.42606 5.79438 5.81506 2.40577 9.99532 2.40577C14.1756 2.40577 17.5646 5.79438 17.5646 9.97503C17.5646 14.1553 14.1756 17.5443 9.99532 17.5443Z" fill="#FCC200"/>
<path d="M10.9 5.8H4.84V3H14.94V5.34L11.36 8.42C13.5 8.72 15.52 9.84 15.52 12.56C15.52 15.34 13.24 17.3 10.06 17.3C6.7 17.3 4.08 14.76 4.08 11.54H6.88C6.88 13.34 8.22 14.62 10.08 14.62C11.6 14.62 12.72 13.76 12.72 12.58C12.72 11.3 11.76 10.5 10.22 10.5H8.96L7.82 8.84L10.9 5.8Z" fill="#1A1A18"/>
</svg>
