<svg width="50" height="50" viewBox="0 0 50 50" fill="none" xmlns="http://www.w3.org/2000/svg">
<path d="M17.1875 44.2969C17.6403 44.2969 18.0078 44.6644 18.0078 45.1172C18.0078 45.57 17.6403 45.9375 17.1875 45.9375C16.7347 45.9375 16.3672 45.57 16.3672 45.1172C16.3672 44.6644 16.7347 44.2969 17.1875 44.2969Z" fill="#FCC200" stroke="#1A1A18" stroke-width="0.3125"/>
<path d="M25 0.15625C32.9909 0.15625 39.4922 6.65758 39.4922 14.6484V18.9062H40.625C42.1541 18.9062 43.3984 20.1506 43.3984 21.6797V47.0703C43.3984 48.5994 42.1541 49.8438 40.625 49.8438H9.375C7.84586 49.8438 6.60156 48.5994 6.60156 47.0703V21.6797C6.60156 20.1506 7.84586 18.9062 9.375 18.9062H10.5078V14.6484C10.5078 6.65758 17.0091 0.15625 25 0.15625ZM9.375 20.5469C8.75023 20.5469 8.24219 21.0549 8.24219 21.6797V24.7656H13.2812C13.7343 24.7656 14.1016 25.1329 14.1016 25.5859V43.1641C14.1016 43.6171 13.7343 43.9844 13.2812 43.9844H8.24219V47.0703C8.24219 47.6951 8.75023 48.2031 9.375 48.2031H40.625C41.2498 48.2031 41.7578 47.6951 41.7578 47.0703V43.9844H36.7188C36.2657 43.9844 35.8984 43.6171 35.8984 43.1641V25.5859C35.8984 25.1329 36.2657 24.7656 36.7188 24.7656H41.7578V21.6797C41.7578 21.0549 41.2498 20.5469 40.625 20.5469H9.375ZM8.24219 42.3438H12.4609V38.125H8.24219V42.3438ZM37.5391 42.3438H41.7578V38.125H37.5391V42.3438ZM8.24219 36.4844H12.4609V32.2656H8.24219V36.4844ZM37.5391 36.4844H41.7578V32.2656H37.5391V36.4844ZM8.24219 30.625H12.4609V26.4062H8.24219V30.625ZM37.5391 30.625H41.7578V26.4062H37.5391V30.625ZM25 1.79688C17.9135 1.79688 12.1484 7.56195 12.1484 14.6484V18.9062H16.3672V14.6484C16.3672 9.88844 20.24 6.01562 25 6.01562C29.76 6.01562 33.6328 9.88844 33.6328 14.6484V18.9062H37.8516V14.6484C37.8516 7.56195 32.0865 1.79688 25 1.79688ZM25 7.65625C21.1444 7.65625 18.0078 10.7928 18.0078 14.6484V18.9062H31.9922V14.6484C31.9922 10.7928 28.8556 7.65625 25 7.65625Z" fill="#FCC200" stroke="#1A1A18" stroke-width="0.3125"/>
<path d="M21.0928 44.1992H32.8125C33.2656 44.1992 33.6328 44.5665 33.6328 45.0195C33.6328 45.4726 33.2656 45.8398 32.8125 45.8398H21.0928C20.6397 45.8398 20.2725 45.4726 20.2725 45.0195C20.2725 44.5665 20.6397 44.1992 21.0928 44.1992Z" fill="#FCC200" stroke="#1A1A18" stroke-width="0.3125"/>
<path d="M24.1797 37.9365L24.0732 37.9004C23.4539 37.6927 22.8628 37.279 22.3564 36.6768C22.065 36.3301 22.1095 35.8121 22.4561 35.5205H22.457C22.8037 35.2293 23.3208 35.2737 23.6123 35.6201C24.0277 36.1141 24.5177 36.415 25 36.415C25.6248 36.415 26.1328 35.907 26.1328 35.2822C26.1328 34.6575 25.6247 34.1495 25 34.1494C23.4709 34.1494 22.2266 32.9051 22.2266 31.376C22.2266 30.1714 22.999 29.1436 24.0752 28.7617L24.1797 28.7246V27.4697C24.1797 27.0167 24.5469 26.6494 25 26.6494C25.453 26.6495 25.8203 27.0167 25.8203 27.4697V28.7197L25.9277 28.7559C26.3518 28.8967 26.8273 29.1553 27.3057 29.6182C27.6311 29.9331 27.64 30.4527 27.3252 30.7783C27.0103 31.1039 26.4907 31.1128 26.165 30.7979C25.8023 30.4467 25.4 30.2432 25 30.2432C24.3752 30.2432 23.8672 30.7512 23.8672 31.376C23.8672 32.0007 24.3752 32.5088 25 32.5088C26.5291 32.5088 27.7734 33.7531 27.7734 35.2822C27.7734 36.4868 27.001 37.5146 25.9248 37.8965L25.8203 37.9336V39.1885C25.8203 39.6415 25.4531 40.0088 25 40.0088C24.5469 40.0088 24.1797 39.6415 24.1797 39.1885V37.9365Z" fill="#FCC200" stroke="#1A1A18" stroke-width="0.3125"/>
</svg>
