<svg width="50" height="50" viewBox="0 0 50 50" fill="none" xmlns="http://www.w3.org/2000/svg">
<g clip-path="url(#clip0_172_1316)">
<path d="M41.6992 34.1797V48.5352H8.30078V34.1797" stroke="#FCC200" stroke-width="1.25" stroke-miterlimit="10" stroke-linecap="round" stroke-linejoin="round"/>
<path d="M25.0001 1.46484L27.4544 5.42852L31.9825 6.53779L28.9712 10.0968L29.3155 14.7461L25.0001 12.9819L20.6848 14.7461L21.0291 10.0968L18.0178 6.53779L22.5458 5.42852L25.0001 1.46484Z" stroke="#FCC200" stroke-width="1.25" stroke-miterlimit="10" stroke-linecap="round" stroke-linejoin="round"/>
<path d="M42.505 6.20557L44.6247 9.62881L48.5353 10.5868L45.9346 13.6604L46.232 17.6758L42.505 16.1522L38.7782 17.6758L39.0755 13.6604L36.4749 10.5868L40.3855 9.62881L42.505 6.20557Z" stroke="#FCC200" stroke-width="1.25" stroke-miterlimit="10" stroke-linecap="round" stroke-linejoin="round"/>
<path d="M7.49512 6.20557L5.37549 9.62881L1.46484 10.5868L4.06553 13.6604L3.76816 17.6758L7.49512 16.1522L11.222 17.6758L10.9246 13.6604L13.5253 10.5868L9.61465 9.62881L7.49512 6.20557Z" stroke="#FCC200" stroke-width="1.25" stroke-miterlimit="10" stroke-linecap="round" stroke-linejoin="round"/>
<path d="M27.9297 36.6211H36.4229C40.2002 36.6211 43.2617 33.5596 43.2617 29.7822V23.5352H6.73828V29.7822C6.73828 33.5596 9.7998 36.6211 13.5771 36.6211H22.0703" stroke="#FCC200" stroke-width="1.25" stroke-miterlimit="10" stroke-linecap="round" stroke-linejoin="round"/>
<path d="M25 41.5039C23.3819 41.5039 22.0703 40.1923 22.0703 38.5742V33.6914H27.9297V38.5742C27.9297 40.1923 26.6181 41.5039 25 41.5039Z" stroke="#FCC200" stroke-width="1.25" stroke-miterlimit="10" stroke-linecap="round" stroke-linejoin="round"/>
<path d="M8.30078 41.9922C11.9141 41.9922 14.8438 44.9219 14.8438 48.5352" stroke="#FCC200" stroke-width="1.25" stroke-miterlimit="10" stroke-linecap="round" stroke-linejoin="round"/>
<path d="M35.1562 48.5352C35.1562 44.9219 38.0859 41.9922 41.6992 41.9922" stroke="#FCC200" stroke-width="1.25" stroke-miterlimit="10" stroke-linecap="round" stroke-linejoin="round"/>
</g>
<defs>
<clipPath id="clip0_172_1316">
<rect width="50" height="50" fill="white"/>
</clipPath>
</defs>
</svg>
