<svg width="50" height="50" viewBox="0 0 50 50" fill="none" xmlns="http://www.w3.org/2000/svg">
<path d="M36.7349 30.3364C37.1687 30.3365 37.521 30.6888 37.521 31.1226C37.5209 31.5563 37.1686 31.9086 36.7349 31.9087C36.3011 31.9087 35.9488 31.5564 35.9487 31.1226C35.9487 30.6887 36.301 30.3364 36.7349 30.3364Z" fill="#FCC200" stroke="#1A1A18" stroke-width="0.46875"/>
<path d="M21.6641 35.886L21.5039 35.8323C20.8709 35.6199 20.2642 35.1954 19.7422 34.5745C19.4629 34.2422 19.5056 33.7464 19.8379 33.467C20.1702 33.1876 20.6659 33.2304 20.9453 33.5627C21.3861 34.0869 21.9166 34.4182 22.4502 34.4182C23.1422 34.418 23.7051 33.8553 23.7051 33.1633C23.705 32.4714 23.1421 31.9086 22.4502 31.9084C20.8916 31.9084 19.623 30.6398 19.623 29.0813C19.6233 27.8538 20.4106 26.8064 21.5078 26.4172L21.6641 26.3616V25.0002C21.6641 24.5661 22.0161 24.2141 22.4502 24.2141C22.8842 24.2143 23.2363 24.5662 23.2363 25.0002V26.3577L23.3965 26.4114C23.8295 26.555 24.3172 26.8198 24.8096 27.2961C25.1215 27.5981 25.1299 28.0965 24.8281 28.4084C24.5261 28.7202 24.028 28.7279 23.7158 28.426H23.7168C23.3298 28.0514 22.8926 27.8276 22.4502 27.8274C21.7582 27.8274 21.1956 28.3894 21.1953 29.0813C21.1953 29.7734 21.7581 30.3362 22.4502 30.3362C24.0084 30.3364 25.2762 31.605 25.2764 33.1633C25.2764 34.3911 24.489 35.4392 23.3916 35.8284L23.2354 35.884V37.2454C23.2352 37.6792 22.884 38.0312 22.4502 38.0315C22.0162 38.0315 21.6642 37.6794 21.6641 37.2454V35.886Z" fill="#FCC200" stroke="#1A1A18" stroke-width="0.46875"/>
<path d="M12.2454 24.2141C13.0003 24.2142 13.7091 24.5081 14.2434 25.0422C14.7779 25.5767 15.0715 26.2861 15.0715 27.0413C15.0714 27.4753 14.7194 27.8274 14.2854 27.8274C13.8516 27.8271 13.5004 27.4751 13.5002 27.0413C13.5002 26.7068 13.3689 26.3904 13.1321 26.1536C12.8956 25.9169 12.5797 25.7865 12.2454 25.7864C11.5532 25.7864 10.9905 26.3491 10.9905 27.0413C10.9903 27.4752 10.6383 27.8273 10.2043 27.8274C9.77031 27.8274 9.41837 27.4753 9.41821 27.0413C9.41821 25.4827 10.6868 24.2141 12.2454 24.2141Z" fill="#FCC200" stroke="#1A1A18" stroke-width="0.46875"/>
<path d="M31.521 21.4116C31.7765 21.0607 32.269 20.9834 32.6196 21.2388C34.8362 22.8533 36.3768 24.9255 37.0864 27.2261C37.2144 27.6409 36.9817 28.0814 36.5669 28.2095C36.4896 28.2333 36.4118 28.2446 36.3354 28.2446C35.9994 28.2446 35.6886 28.0272 35.5845 27.6899C34.9716 25.7033 33.6211 23.9141 31.6938 22.5103C31.3429 22.2547 31.2655 21.7624 31.521 21.4116Z" fill="#FCC200" stroke="#1A1A18" stroke-width="0.46875"/>
<mask id="path-5-inside-1_172_1383" fill="white">
<path d="M50 16.8367C50 16.2731 49.5431 15.8163 48.9796 15.8163C48.4161 15.8163 47.9592 16.2731 47.9592 16.8367C47.9592 17.6533 47.7629 18.4466 47.3996 19.1573C46.8449 18.3716 45.9308 17.8571 44.8979 17.8571C43.21 17.8571 41.8367 19.2303 41.8367 20.9183C41.8367 22.6063 43.21 23.9795 44.8979 23.9795C45.2228 23.9795 45.5398 23.926 45.8398 23.8279C45.6928 24.6843 45.3326 25.4929 44.7752 26.1776C43.9846 27.1487 42.8856 27.7837 41.6759 27.9888C41.2709 25.3342 40.1029 22.8186 38.2373 20.6188C36.2334 18.2557 33.5598 16.4087 30.4493 15.225C31.2259 13.8563 31.6326 12.3206 31.6326 10.7142C31.6326 5.65034 27.5128 1.53052 22.4489 1.53052C17.3851 1.53052 13.2652 5.65034 13.2652 10.7142C13.2652 12.3203 13.6719 13.8559 14.4478 15.225C13.788 15.4767 13.1446 15.7593 12.5226 16.0719C11.4769 14.776 10.0251 13.8942 8.37207 13.5635C6.50137 13.1893 4.59678 13.5662 3.00938 14.6245C2.54053 14.9371 2.41377 15.5705 2.72627 16.0395L6.17334 21.2105C6.17334 21.2105 6.17568 21.2141 6.18018 21.2207C5.26807 22.3952 4.546 23.6613 4.0249 25H1.02041C0.456836 25 0 25.4568 0 26.0204V34.1836C0 34.7472 0.456836 35.2041 1.02041 35.2041H4.0251C5.03555 37.7993 6.80352 40.1342 9.18369 42.0141V47.4489C9.18369 48.0125 9.64053 48.4693 10.2041 48.4693H16.3266C16.8901 48.4693 17.347 48.0125 17.347 47.4489V45.8577C19.0025 46.2368 20.7131 46.4285 22.449 46.4285C24.1851 46.4285 25.8954 46.2369 27.5511 45.8577V47.4489C27.5511 48.0125 28.008 48.4693 28.5715 48.4693H34.6939C35.2574 48.4693 35.7144 48.0125 35.7144 47.4489V42.014C39.6124 38.9336 41.8368 34.619 41.8368 30.102C41.8368 30.077 41.8361 30.052 41.836 30.027C43.6016 29.7747 45.2118 28.8741 46.3581 27.4662C47.6233 25.9122 48.1664 23.9102 47.8823 21.9101C49.2326 20.5725 50 18.75 50 16.8367ZM22.449 3.57134C26.3876 3.57134 29.5919 6.77564 29.5919 10.7142C29.5919 12.3312 29.0644 13.8569 28.0665 15.126C26.701 16.8617 24.6535 17.8571 22.449 17.8571C20.2452 17.8571 18.1977 16.862 16.8311 15.1268C15.8334 13.8567 15.3062 12.3309 15.3062 10.7142C15.3062 6.77564 18.5105 3.57134 22.449 3.57134ZM34.0838 40.6933C33.8256 40.886 33.6734 41.1891 33.6734 41.5112V46.4286H29.5918V44.5368C29.5918 44.2151 29.4401 43.9123 29.1825 43.7196C28.925 43.527 28.5918 43.467 28.283 43.558C26.4142 44.1085 24.4513 44.3877 22.4489 44.3877C20.4466 44.3877 18.4837 44.1085 16.6148 43.558C16.3063 43.4671 15.9729 43.5269 15.7153 43.7196C15.4577 43.9123 15.3061 44.2151 15.3061 44.5367V46.4285H11.2244V41.5111C11.2244 41.189 11.0724 40.8859 10.8144 40.6933C8.34502 38.8505 6.58008 36.4885 5.71045 33.8627C5.57207 33.4451 5.18174 33.1631 4.7418 33.1631H2.04082V27.0407H4.7418C5.18184 27.0407 5.57217 26.7587 5.71045 26.3411C6.23418 24.7592 7.0793 23.2801 8.22207 21.9451C8.51875 21.5986 8.54932 21.0971 8.29688 20.717C8.03213 20.3185 7.87031 20.0767 7.87031 20.0767L5.04668 15.8408C5.96572 15.4643 6.97559 15.3654 7.97188 15.5646C9.30811 15.8319 10.4604 16.6035 11.2169 17.7382C11.217 17.7384 11.3297 17.9069 11.3605 17.9538C11.6553 18.4002 12.2447 18.5431 12.7112 18.2816C13.6505 17.7548 14.6534 17.3061 15.6989 16.9414C16.2854 17.5781 16.9498 18.1214 17.6722 18.5623C17.5758 18.5917 17.4796 18.6217 17.3838 18.653C16.8479 18.8275 16.555 19.4034 16.7295 19.9392C16.8698 20.3702 17.2696 20.6439 17.6995 20.6439C17.8042 20.6439 17.9107 20.6276 18.0157 20.5934C19.4334 20.1318 20.9249 19.8977 22.4489 19.8977C23.9647 19.8977 25.4479 20.1292 26.8569 20.5858C27.3926 20.7593 27.9685 20.4657 28.1421 19.9295C28.3158 19.3934 28.022 18.818 27.4858 18.6442C27.3991 18.6162 27.3119 18.5891 27.2248 18.5625C27.9477 18.1213 28.6123 17.5776 29.199 16.9402C35.5649 19.1616 39.7959 24.3804 39.7959 30.1017C39.7959 34.1246 37.7139 37.9849 34.0838 40.6933ZM45.8801 21.1956C45.8718 21.2258 45.8624 21.2543 45.8524 21.2798C45.8518 21.2817 45.851 21.2834 45.8504 21.2851C45.7003 21.676 45.3176 21.9387 44.8979 21.9387C44.3353 21.9387 43.8775 21.481 43.8775 20.9183C43.8775 20.3556 44.3353 19.8979 44.8979 19.8979C45.4606 19.8979 45.9184 20.3556 45.9184 20.9183C45.9184 21.0119 45.9062 21.103 45.8801 21.1956Z"/>
</mask>
<path d="M50 16.8367C50 16.2731 49.5431 15.8163 48.9796 15.8163C48.4161 15.8163 47.9592 16.2731 47.9592 16.8367C47.9592 17.6533 47.7629 18.4466 47.3996 19.1573C46.8449 18.3716 45.9308 17.8571 44.8979 17.8571C43.21 17.8571 41.8367 19.2303 41.8367 20.9183C41.8367 22.6063 43.21 23.9795 44.8979 23.9795C45.2228 23.9795 45.5398 23.926 45.8398 23.8279C45.6928 24.6843 45.3326 25.4929 44.7752 26.1776C43.9846 27.1487 42.8856 27.7837 41.6759 27.9888C41.2709 25.3342 40.1029 22.8186 38.2373 20.6188C36.2334 18.2557 33.5598 16.4087 30.4493 15.225C31.2259 13.8563 31.6326 12.3206 31.6326 10.7142C31.6326 5.65034 27.5128 1.53052 22.4489 1.53052C17.3851 1.53052 13.2652 5.65034 13.2652 10.7142C13.2652 12.3203 13.6719 13.8559 14.4478 15.225C13.788 15.4767 13.1446 15.7593 12.5226 16.0719C11.4769 14.776 10.0251 13.8942 8.37207 13.5635C6.50137 13.1893 4.59678 13.5662 3.00938 14.6245C2.54053 14.9371 2.41377 15.5705 2.72627 16.0395L6.17334 21.2105C6.17334 21.2105 6.17568 21.2141 6.18018 21.2207C5.26807 22.3952 4.546 23.6613 4.0249 25H1.02041C0.456836 25 0 25.4568 0 26.0204V34.1836C0 34.7472 0.456836 35.2041 1.02041 35.2041H4.0251C5.03555 37.7993 6.80352 40.1342 9.18369 42.0141V47.4489C9.18369 48.0125 9.64053 48.4693 10.2041 48.4693H16.3266C16.8901 48.4693 17.347 48.0125 17.347 47.4489V45.8577C19.0025 46.2368 20.7131 46.4285 22.449 46.4285C24.1851 46.4285 25.8954 46.2369 27.5511 45.8577V47.4489C27.5511 48.0125 28.008 48.4693 28.5715 48.4693H34.6939C35.2574 48.4693 35.7144 48.0125 35.7144 47.4489V42.014C39.6124 38.9336 41.8368 34.619 41.8368 30.102C41.8368 30.077 41.8361 30.052 41.836 30.027C43.6016 29.7747 45.2118 28.8741 46.3581 27.4662C47.6233 25.9122 48.1664 23.9102 47.8823 21.9101C49.2326 20.5725 50 18.75 50 16.8367ZM22.449 3.57134C26.3876 3.57134 29.5919 6.77564 29.5919 10.7142C29.5919 12.3312 29.0644 13.8569 28.0665 15.126C26.701 16.8617 24.6535 17.8571 22.449 17.8571C20.2452 17.8571 18.1977 16.862 16.8311 15.1268C15.8334 13.8567 15.3062 12.3309 15.3062 10.7142C15.3062 6.77564 18.5105 3.57134 22.449 3.57134ZM34.0838 40.6933C33.8256 40.886 33.6734 41.1891 33.6734 41.5112V46.4286H29.5918V44.5368C29.5918 44.2151 29.4401 43.9123 29.1825 43.7196C28.925 43.527 28.5918 43.467 28.283 43.558C26.4142 44.1085 24.4513 44.3877 22.4489 44.3877C20.4466 44.3877 18.4837 44.1085 16.6148 43.558C16.3063 43.4671 15.9729 43.5269 15.7153 43.7196C15.4577 43.9123 15.3061 44.2151 15.3061 44.5367V46.4285H11.2244V41.5111C11.2244 41.189 11.0724 40.8859 10.8144 40.6933C8.34502 38.8505 6.58008 36.4885 5.71045 33.8627C5.57207 33.4451 5.18174 33.1631 4.7418 33.1631H2.04082V27.0407H4.7418C5.18184 27.0407 5.57217 26.7587 5.71045 26.3411C6.23418 24.7592 7.0793 23.2801 8.22207 21.9451C8.51875 21.5986 8.54932 21.0971 8.29688 20.717C8.03213 20.3185 7.87031 20.0767 7.87031 20.0767L5.04668 15.8408C5.96572 15.4643 6.97559 15.3654 7.97188 15.5646C9.30811 15.8319 10.4604 16.6035 11.2169 17.7382C11.217 17.7384 11.3297 17.9069 11.3605 17.9538C11.6553 18.4002 12.2447 18.5431 12.7112 18.2816C13.6505 17.7548 14.6534 17.3061 15.6989 16.9414C16.2854 17.5781 16.9498 18.1214 17.6722 18.5623C17.5758 18.5917 17.4796 18.6217 17.3838 18.653C16.8479 18.8275 16.555 19.4034 16.7295 19.9392C16.8698 20.3702 17.2696 20.6439 17.6995 20.6439C17.8042 20.6439 17.9107 20.6276 18.0157 20.5934C19.4334 20.1318 20.9249 19.8977 22.4489 19.8977C23.9647 19.8977 25.4479 20.1292 26.8569 20.5858C27.3926 20.7593 27.9685 20.4657 28.1421 19.9295C28.3158 19.3934 28.022 18.818 27.4858 18.6442C27.3991 18.6162 27.3119 18.5891 27.2248 18.5625C27.9477 18.1213 28.6123 17.5776 29.199 16.9402C35.5649 19.1616 39.7959 24.3804 39.7959 30.1017C39.7959 34.1246 37.7139 37.9849 34.0838 40.6933ZM45.8801 21.1956C45.8718 21.2258 45.8624 21.2543 45.8524 21.2798C45.8518 21.2817 45.851 21.2834 45.8504 21.2851C45.7003 21.676 45.3176 21.9387 44.8979 21.9387C44.3353 21.9387 43.8775 21.481 43.8775 20.9183C43.8775 20.3556 44.3353 19.8979 44.8979 19.8979C45.4606 19.8979 45.9184 20.3556 45.9184 20.9183C45.9184 21.0119 45.9062 21.103 45.8801 21.1956Z" fill="#FCC200" stroke="#1A1A18" stroke-width="0.9375" mask="url(#path-5-inside-1_172_1383)"/>
<path d="M22.4492 5.84668C25.1327 5.84694 27.3164 8.03117 27.3164 10.7148C27.3161 13.3983 25.1327 15.5818 22.4492 15.582C19.7655 15.582 17.5813 13.3985 17.5811 10.7148C17.5811 8.031 19.7654 5.84668 22.4492 5.84668ZM22.4492 7.41895C20.6318 7.41895 19.1533 8.89741 19.1533 10.7148C19.1536 12.5321 20.632 14.0098 22.4492 14.0098C24.2662 14.0095 25.7439 12.5319 25.7441 10.7148C25.7441 8.89758 24.2664 7.41921 22.4492 7.41895Z" fill="#FCC200" stroke="#1A1A18" stroke-width="0.46875"/>
</svg>
