<svg width="50" height="50" viewBox="0 0 50 50" fill="none" xmlns="http://www.w3.org/2000/svg">
<g clip-path="url(#clip0_172_1362)">
<path d="M24.9807 7.08643C30.3189 7.08643 35.3348 9.44263 38.7483 13.5522L38.7502 13.5552L38.7542 13.5591C38.7577 13.5633 38.7613 13.5677 38.7639 13.5708C38.7667 13.574 38.7689 13.5764 38.7708 13.5786V13.5796C41.4146 16.7747 42.8713 20.8229 42.8713 24.978C42.8712 29.1312 41.4148 33.1789 38.7717 36.3755C35.3562 40.5017 30.3298 42.8677 24.9807 42.8677C19.6408 42.8676 14.624 40.5101 11.2102 36.3989L11.2092 36.3979H11.2083V36.397L11.1907 36.3765V36.3755C8.54683 33.1804 7.09019 29.1329 7.09009 24.978C7.09009 20.8236 8.54602 16.7747 11.1897 13.5786C14.6051 9.45259 19.6318 7.08651 24.9807 7.08643ZM24.9807 34.1997C23.3075 34.1997 21.6603 34.3041 20.0676 34.5073L19.884 34.5308L19.9377 34.7085C20.5376 36.6814 21.3109 38.3007 22.1711 39.4302C23.0276 40.5547 23.9929 41.221 24.9807 41.2212C25.9684 41.2212 26.9339 40.5547 27.7903 39.4302C28.6503 38.3007 29.4229 36.6812 30.0227 34.7085L30.0764 34.5308L29.8938 34.5073C28.3009 34.3041 26.6533 34.1997 24.9807 34.1997ZM18.1057 34.813C16.4247 35.1255 14.8392 35.556 13.427 36.0835L13.2024 36.1675L13.3704 36.3394C15.4009 38.4159 17.9251 39.8908 20.6848 40.645L21.1301 40.7671L20.8508 40.3999C19.8315 39.0606 18.9519 37.2084 18.2844 34.9224L18.2444 34.7866L18.1057 34.813ZM31.678 34.9224C31.0407 37.1033 30.1952 38.9405 29.2161 40.2759C29.1853 40.3178 29.1597 40.3492 29.1243 40.396L28.8469 40.7632L29.2903 40.6411C32.0445 39.8857 34.5642 38.4126 36.592 36.3394L36.76 36.1675L36.5354 36.0835C35.1224 35.5562 33.537 35.1254 31.8567 34.813L31.717 34.7866L31.678 34.9224ZM8.76685 25.9663C8.96158 29.1435 10.0896 32.2088 12.0032 34.7495L12.0754 34.8452L12.1877 34.8003C13.8149 34.1355 15.6837 33.596 17.678 33.2173L17.8362 33.187L17.802 33.0308C17.322 30.8412 17.0438 28.4289 16.9856 25.9536L16.9817 25.8013H8.75708L8.76685 25.9663ZM32.9758 25.9536C32.9176 28.4289 32.6396 30.841 32.1594 33.0308L32.1252 33.187L32.2825 33.2173C34.2764 33.5959 36.1465 34.1346 37.7747 34.7993L37.886 34.8452L37.9583 34.7495C39.8714 32.2081 40.999 29.1427 41.1936 25.9663L41.2043 25.8003H32.9788L32.9758 25.9536ZM18.6331 25.9604C18.692 28.3544 18.9648 30.6815 19.4348 32.7856L19.4661 32.9263L19.6077 32.9067C21.3466 32.673 23.1498 32.5532 24.9807 32.5532C26.8109 32.5532 28.6136 32.6731 30.3528 32.9067L30.4954 32.9263L30.5266 32.7856C30.9967 30.6813 31.2695 28.3542 31.3284 25.9604L31.3323 25.8013H18.6282L18.6331 25.9604ZM12.0032 15.2056C10.0898 17.7467 8.96256 20.8117 8.76782 23.9888L8.75708 24.1548H16.9817L16.9856 24.0015C17.0438 21.5262 17.3219 19.1139 17.802 16.9243L17.8362 16.7681L17.678 16.7378C15.6835 16.359 13.8144 15.8196 12.1877 15.1548L12.0754 15.1089L12.0032 15.2056ZM30.3528 17.0483C28.6139 17.282 26.8111 17.4019 24.9807 17.4019C23.1499 17.4018 21.3469 17.282 19.6077 17.0483L19.4661 17.0288L19.4348 17.1694C18.9647 19.2737 18.692 21.6007 18.6331 23.9946L18.6282 24.1538H31.3323L31.3284 23.9946C31.2696 21.6007 30.9966 19.2736 30.5266 17.1694L30.4954 17.0288L30.3528 17.0483ZM37.7737 15.1548C36.1473 15.8194 34.2778 16.359 32.2825 16.7378L32.1252 16.7681L32.1594 16.9243C32.6396 19.1139 32.9176 21.5261 32.9758 24.0015L32.9788 24.1538H41.2043L41.1936 23.9888C40.999 20.8114 39.8711 17.7462 37.9573 15.2056L37.885 15.1099L37.7737 15.1548ZM24.9807 8.73291C23.9928 8.73308 23.0276 9.40009 22.1711 10.5249C21.3109 11.6546 20.5375 13.2735 19.9377 15.2466L19.884 15.4243L20.0676 15.4468C21.6605 15.65 23.3077 15.7554 24.9807 15.7554C26.6536 15.7554 28.3011 15.65 29.8938 15.4468L30.0774 15.4243L30.0227 15.2466C29.4229 13.2734 28.6503 11.6535 27.7903 10.5239C26.9339 9.39931 25.9684 8.73291 24.9807 8.73291ZM20.6848 9.30908C17.9252 10.0635 15.4005 11.5388 13.3694 13.6157L13.2014 13.7876L13.427 13.8716C14.8389 14.399 16.4244 14.8295 18.1057 15.1421L18.2444 15.1685L18.2834 15.0327C18.9508 12.7464 19.8313 10.8945 20.8508 9.55518L21.1301 9.18799L20.6848 9.30908ZM29.1243 9.55713C29.1602 9.60479 29.1849 9.63573 29.2161 9.67822C30.1952 11.0136 31.0406 12.8512 31.678 15.0327L31.717 15.1685L31.8567 15.1421C33.538 14.8295 35.1229 14.3988 36.5344 13.8716L36.759 13.7876L36.592 13.6157C34.5648 11.5418 32.045 10.0686 29.2903 9.31299L28.8479 9.19092L29.1243 9.55713Z" fill="#FCC200" stroke="#1A1A18" stroke-width="0.3125"/>
<path d="M19.8799 0.483398C20.154 0.120844 20.6696 0.0486647 21.0322 0.322266L23.6396 2.29199L23.6475 2.29883L23.6953 2.33887C23.7047 2.34736 23.7087 2.3506 23.7139 2.35547C23.7254 2.36661 23.7364 2.37891 23.748 2.3916L23.749 2.39258L23.7715 2.41699C23.7788 2.42554 23.7866 2.43479 23.7969 2.44824V2.44922C23.8082 2.46393 23.8151 2.47246 23.8213 2.48145L23.8223 2.48242C23.8273 2.48962 23.8303 2.49568 23.8398 2.51074C23.8506 2.52787 23.8581 2.53878 23.8643 2.5498V2.55078C23.8684 2.55803 23.8705 2.5626 23.8789 2.5791L23.8994 2.62109C23.9027 2.62872 23.9052 2.63419 23.9111 2.64941V2.65039C23.9183 2.6685 23.9234 2.68288 23.9277 2.69629L23.9287 2.69824C23.9307 2.70432 23.9309 2.70624 23.9355 2.72266V2.72363L23.9492 2.77734C23.9502 2.78209 23.9508 2.78318 23.9531 2.7959V2.79688L23.9629 2.86133C23.9631 2.86365 23.9635 2.86637 23.9639 2.87109V2.87305C23.9663 2.89816 23.9677 2.92317 23.9678 2.94824C23.9678 2.94916 23.9678 2.95014 23.9678 2.95117C23.9679 3.12479 23.915 3.29981 23.8027 3.44824L21.8301 6.05762C21.6683 6.27161 21.4215 6.38379 21.1719 6.38379C20.9992 6.38369 20.8253 6.32994 20.6768 6.21777C20.3141 5.94353 20.2424 5.42714 20.5166 5.06445L21.0684 4.33496L21.3145 4.00977L20.9141 4.08691C11.4344 5.92526 4.19984 14.0873 3.70508 23.9316C3.1491 34.9818 10.9778 44.5054 21.9141 46.083C22.364 46.148 22.6762 46.5658 22.6113 47.0156C22.5521 47.4254 22.2001 47.7215 21.7979 47.7217C21.7588 47.7217 21.7186 47.7187 21.6787 47.7129C16.0469 46.9005 10.9396 44.0293 7.29688 39.6279C3.63119 35.1987 1.7714 29.5949 2.06055 23.8486C2.34158 18.2591 4.64737 12.9774 8.55273 8.97656C11.857 5.59177 16.1001 3.32574 20.6895 2.4541L21.0352 2.3877L20.7539 2.17578L20.04 1.63672C19.6773 1.36267 19.6058 0.84619 19.8799 0.483398Z" fill="#FCC200" stroke="#1A1A18" stroke-width="0.3125"/>
<path d="M42.5859 11.5718C42.9574 11.3094 43.471 11.3978 43.7334 11.769C46.72 15.9966 48.161 20.9689 47.9004 26.1499C47.6189 31.7399 45.3131 37.0222 41.4082 41.0229C38.1041 44.4081 33.8608 46.6746 29.2715 47.5464L28.9258 47.6118L29.207 47.8247L29.9199 48.3638C30.2824 48.638 30.3543 49.1545 30.0801 49.5171C29.9183 49.7309 29.6723 49.8432 29.4229 49.8433C29.2499 49.8433 29.0754 49.7896 28.9268 49.6772L26.3232 47.7085H26.3242L26.3223 47.7065C26.3211 47.7056 26.3187 47.7043 26.3164 47.7026C26.3154 47.7018 26.3138 47.6997 26.3125 47.6987L26.2705 47.6636H26.2695C26.2594 47.6546 26.2519 47.6476 26.2451 47.6411C26.2374 47.6337 26.2293 47.6249 26.2188 47.6138L26.1865 47.5786C26.1819 47.573 26.1831 47.5739 26.1729 47.561C26.1589 47.5435 26.1469 47.5282 26.1367 47.5132L26.1357 47.5122L26.1348 47.5103L26.1338 47.5093C26.1331 47.5081 26.132 47.5062 26.1309 47.5044V47.5034L26.0967 47.4487C26.0967 47.4487 26.095 47.445 26.0928 47.4409L26.0918 47.4399C25.9425 47.1645 25.9578 46.8167 26.1582 46.5513L28.1299 43.9429C28.3871 43.6028 28.8574 43.5182 29.2139 43.7349L29.2832 43.7827C29.6457 44.057 29.7175 44.5734 29.4434 44.936L28.8916 45.6655L28.6455 45.9907L29.0459 45.9136C38.5255 44.0757 45.76 35.9128 46.2559 26.0679C46.4975 21.2593 45.1603 16.6424 42.3887 12.7192C42.1263 12.3478 42.2146 11.8342 42.5859 11.5718Z" fill="#FCC200" stroke="#1A1A18" stroke-width="0.3125"/>
<path d="M28.469 2.31494C32.5401 2.93636 36.3757 4.65072 39.5598 7.27393C39.9108 7.56301 39.9604 8.08225 39.6711 8.43311C39.5084 8.6305 39.2732 8.73291 39.0354 8.73291C38.8512 8.73287 38.6663 8.67158 38.5129 8.54541C35.5579 6.11074 31.9988 4.51842 28.2209 3.94189C27.7717 3.87338 27.4631 3.45398 27.5315 3.00439C27.6001 2.55526 28.0192 2.24695 28.469 2.31494Z" fill="#FCC200" stroke="#1A1A18" stroke-width="0.3125"/>
<path d="M41.0774 8.89355C41.3708 8.89358 41.5854 9.00699 41.7278 9.17285C41.8715 9.34035 41.9457 9.56606 41.9456 9.79492C41.9454 10.0236 41.8714 10.2495 41.7278 10.417C41.5853 10.5829 41.3703 10.6963 41.0774 10.6963C40.7839 10.6963 40.5694 10.5829 40.427 10.417C40.2832 10.2495 40.2091 10.0238 40.2092 9.79492C40.2094 9.56615 40.2833 9.34036 40.427 9.17285C40.5695 9.00693 40.7844 8.89355 41.0774 8.89355Z" fill="#FCC200" stroke="#1A1A18" stroke-width="0.15625"/>
</g>
<defs>
<clipPath id="clip0_172_1362">
<rect width="50" height="50" fill="white"/>
</clipPath>
</defs>
</svg>
