<svg width="50" height="50" viewBox="0 0 50 50" fill="none" xmlns="http://www.w3.org/2000/svg">
<g clip-path="url(#clip0_172_1282)">
<path d="M48.416 4.43701L48.4159 4.43682L48.4158 4.43662C47.2274 2.48965 44.6856 1.87468 42.7387 3.06304L42.7384 3.06255C41.5499 1.11549 39.0082 0.500516 37.0612 1.68887L37.061 1.68897L37.0603 1.68936C35.1133 2.87772 34.4983 5.4195 35.6867 7.36647L39.5943 13.7683C39.8134 14.1273 40.2821 14.2407 40.6411 14.0217L47.0427 10.1143C48.9897 8.92596 49.6046 6.38398 48.416 4.43701Z" stroke="#FCC200" stroke-width="1.25" stroke-miterlimit="10" stroke-linecap="round" stroke-linejoin="round"/>
<path d="M37.5558 40.6854L38.6278 42.6453L40.5876 43.7172C40.93 43.9044 40.93 44.3961 40.5876 44.5834L38.6278 45.6553L37.5558 47.6152C37.3687 47.9575 36.877 47.9575 36.6897 47.6152L35.6178 45.6553L33.6579 44.5834C33.3155 44.3962 33.3155 43.9045 33.6579 43.7172L35.6178 42.6453L36.6897 40.6854C36.877 40.3431 37.3687 40.3431 37.5558 40.6854Z" stroke="#FCC200" stroke-width="1.25" stroke-miterlimit="10" stroke-linecap="round" stroke-linejoin="round"/>
<path d="M8.50057 1.45104L9.57249 3.41092L11.5324 4.48284C11.8747 4.67002 11.8747 5.1617 11.5324 5.34898L9.57249 6.4209L8.50057 8.38078C8.31339 8.72315 7.82171 8.72315 7.63443 8.38078L6.56261 6.4209L4.60272 5.34898C4.26036 5.1618 4.26036 4.67012 4.60272 4.48284L6.56261 3.41092L7.63452 1.45104C7.82171 1.10877 8.31339 1.10877 8.50057 1.45104Z" stroke="#FCC200" stroke-width="1.25" stroke-miterlimit="10" stroke-linecap="round" stroke-linejoin="round"/>
<path d="M8.50081 1.45104L9.57273 3.41092L11.5326 4.48284C11.875 4.67002 11.875 5.1617 11.5326 5.34898L9.57273 6.4209L8.50081 8.38078C8.31363 8.72315 7.82195 8.72315 7.63467 8.38078L6.56285 6.4209L4.60297 5.34898C4.2606 5.1618 4.2606 4.67012 4.60297 4.48284L6.56285 3.41092L7.63477 1.45104C7.82195 1.10877 8.31363 1.10877 8.50081 1.45104Z" stroke="#FCC200" stroke-width="1.25" stroke-miterlimit="10" stroke-linecap="round" stroke-linejoin="round"/>
<path d="M14.2682 38.7553L14.268 38.7552L14.2678 38.7551C12.6537 38.2791 10.9594 39.2017 10.4834 40.8157L10.483 40.8156C8.86889 40.3396 7.17456 41.2622 6.69854 42.8763L6.69844 42.8765L6.69824 42.877C6.22222 44.4911 7.14482 46.1855 8.75881 46.6615L14.066 48.2267C14.3636 48.3144 14.676 48.1443 14.7638 47.8467L16.329 42.5398C16.8051 40.9257 15.8824 39.2313 14.2682 38.7553Z" stroke="#FCC200" stroke-width="1.25" stroke-miterlimit="10" stroke-linecap="round" stroke-linejoin="round"/>
<mask id="mask0_172_1282" style="mask-type:luminance" maskUnits="userSpaceOnUse" x="0" y="-3" width="51" height="51">
<path d="M0.00170898 -2.00097H50.0017V47.999H0.00170898V-2.00097Z" fill="white"/>
</mask>
<g mask="url(#mask0_172_1282)">
<path d="M36.6274 30.0144C36.6274 31.9079 38.1625 33.4429 40.0561 33.4429C41.9496 33.4429 43.4847 31.9079 43.4847 30.0144C43.4847 28.1207 41.9496 26.5857 40.0561 26.5857C38.1625 26.5857 36.6274 28.1207 36.6274 30.0144Z" stroke="#FCC200" stroke-width="1.25" stroke-miterlimit="10" stroke-linecap="round" stroke-linejoin="round"/>
<path d="M8.90552 30.0144C8.90552 31.9079 10.4406 33.4429 12.334 33.4429C14.2277 33.4429 15.7627 31.9079 15.7627 30.0144C15.7627 28.1207 14.2277 26.5857 12.334 26.5857C10.4406 26.5857 8.90552 28.1207 8.90552 30.0144Z" stroke="#FCC200" stroke-width="1.25" stroke-miterlimit="10" stroke-linecap="round" stroke-linejoin="round"/>
<path d="M21.6686 30.0137H15.7632C15.7632 28.12 14.228 26.5858 12.3345 26.5858C10.4526 26.5858 8.92432 28.1016 8.90576 29.9785C4.24268 29.791 0.978027 28.9257 0.978027 28.9257V25.1689C0.978027 24.626 1.11963 24.0917 1.38818 23.6191L2.15088 22.2793L2.27773 22.0566V19.3798L6.98291 18.5419C6.98291 18.5419 13.6821 12.5566 18.0288 12.5566C20.3246 12.5566 23.8823 12.5811 25.8051 12.6044C27.6626 12.6279 29.4292 13.4043 30.7007 14.7577L34.102 18.5654C34.5688 19.0879 35.2144 19.418 35.9116 19.4883C38.5775 19.7607 45.3921 20.4814 47.4087 20.9336C48.354 21.1454 49.0249 21.9843 49.0249 22.9531V25.3387C49.0249 26.143 48.7354 26.9204 48.2096 27.529V28.3636C48.2096 29.0073 47.7341 29.5523 47.0962 29.6396C45.9009 29.8359 44.6948 29.955 43.4849 29.996C43.4751 28.1104 41.9438 26.5858 40.0562 26.5858C38.1626 26.5858 36.6274 28.12 36.6274 30.0137H30.2613" stroke="#FCC200" stroke-width="1.25" stroke-miterlimit="10" stroke-linecap="round" stroke-linejoin="round"/>
<path d="M10.4275 20.3564H30.8132L27.8269 17.0138C27.2878 16.4552 26.5359 16.082 25.7566 16.0724C23.8708 16.0489 20.3142 16.0724 18.0291 16.0724C17.8758 16.0724 16.4314 16.1357 13.1316 18.3486C12.0349 19.0841 11.072 19.8321 10.4275 20.3564Z" stroke="#FCC200" stroke-width="1.25" stroke-miterlimit="10" stroke-linecap="round" stroke-linejoin="round"/>
<path d="M47.0041 24.5298H49.0253V22.9532C49.0253 22.0001 48.3731 21.1739 47.4472 20.9435C46.4872 20.7032 45.5361 20.6114 45.5361 20.6114L45.3318 21.0511C44.9868 21.7934 44.9757 22.6129 45.2453 23.3318C45.5181 24.0591 46.2275 24.5298 47.0041 24.5298Z" stroke="#FCC200" stroke-width="1.25" stroke-miterlimit="10" stroke-linecap="round" stroke-linejoin="round"/>
<path d="M0.978027 25.1692V26.0703H3.47451C4.5207 26.0703 5.40635 25.2433 5.41836 24.1971C5.42441 23.6648 5.21143 23.1825 4.86279 22.8339C4.52002 22.4911 4.04639 22.2792 3.52295 22.2792H2.15088L1.38838 23.6188C1.11943 24.0913 0.978027 24.6257 0.978027 25.1692Z" stroke="#FCC200" stroke-width="1.25" stroke-miterlimit="10" stroke-linecap="round" stroke-linejoin="round"/>
<path d="M21.4377 16.0724V20.3564" stroke="#FCC200" stroke-width="1.25" stroke-miterlimit="10" stroke-linecap="round" stroke-linejoin="round"/>
<path d="M24.8065 24.1748H22.8066" stroke="#FCC200" stroke-width="1.25" stroke-miterlimit="10" stroke-linecap="round" stroke-linejoin="round"/>
</g>
</g>
<defs>
<clipPath id="clip0_172_1282">
<rect width="50" height="50" fill="white"/>
</clipPath>
</defs>
</svg>
