<svg width="50" height="50" viewBox="0 0 50 50" fill="none" xmlns="http://www.w3.org/2000/svg">
<mask id="mask0_179_233" style="mask-type:alpha" maskUnits="userSpaceOnUse" x="0" y="0" width="50" height="50">
<rect width="50" height="50" rx="12.5" fill="#D9D9D9"/>
</mask>
<g mask="url(#mask0_179_233)">
<path d="M44.5972 0H5.40285C2.41904 0 0 2.41904 0 5.40285V44.5972C0 47.581 2.41904 50 5.40285 50H44.5972C47.581 50 50 47.581 50 44.5972V5.40285C50 2.41904 47.581 0 44.5972 0ZM24.9883 43.8607C14.5377 43.8607 6.06516 35.3882 6.06516 24.9376C6.06516 14.486 14.5377 6.01444 24.9883 6.01444C35.4389 6.01444 43.9114 14.486 43.9114 24.9376C43.9114 35.3882 35.4389 43.8607 24.9883 43.8607Z" fill="white"/>
<path d="M24.9883 43.8607C14.5377 43.8607 6.06516 35.3882 6.06516 24.9376C6.06516 14.486 14.5377 6.01444 24.9883 6.01444C35.4389 6.01444 43.9114 14.486 43.9114 24.9376C43.9114 35.3882 35.4389 43.8607 24.9883 43.8607Z" fill="white"/>
<path d="M43.753 24.6295C43.753 24.442 43.6007 24.2868 43.4132 24.278C36.6852 24.0232 32.5905 23.165 29.7259 20.3004C26.8555 17.43 26.0003 13.3323 25.7454 6.58977C25.7396 6.40231 25.5844 6.25 25.394 6.25H24.609C24.4215 6.25 24.2663 6.40231 24.2575 6.58977C24.0027 13.3294 23.1474 17.43 20.277 20.3004C17.4095 23.1679 13.3177 24.0232 6.58976 24.278C6.40231 24.2839 6.25 24.4391 6.25 24.6295V25.4145C6.25 25.6019 6.40231 25.7571 6.58976 25.7659C13.3177 26.0208 17.4124 26.879 20.277 29.7435C23.1416 32.6081 23.9968 36.6942 24.2546 43.4101C24.2604 43.5976 24.4157 43.75 24.6061 43.75H25.394C25.5814 43.75 25.7367 43.5976 25.7454 43.4101C26.0032 36.6942 26.8585 32.6081 29.723 29.7435C32.5905 26.876 36.6823 26.0208 43.4102 25.7659C43.5978 25.7601 43.7501 25.6048 43.7501 25.4145V24.6295H43.753Z" fill="#1A1A18"/>
</g>
</svg>
