<svg width="20" height="21" viewBox="0 0 20 21" fill="none" xmlns="http://www.w3.org/2000/svg">
<path d="M17.8389 0.5H2.16114C0.967616 0.5 0 1.46762 0 2.66114V18.3389C0 19.5324 0.967616 20.5 2.16114 20.5H17.8389C19.0324 20.5 20 19.5324 20 18.3389V2.66114C20 1.46762 19.0324 0.5 17.8389 0.5ZM9.99532 18.0443C5.81506 18.0443 2.42606 14.6553 2.42606 10.475C2.42606 6.29438 5.81506 2.90577 9.99532 2.90577C14.1756 2.90577 17.5646 6.29438 17.5646 10.475C17.5646 14.6553 14.1756 18.0443 9.99532 18.0443Z" fill="#FCC200"/>
<path d="M9.99532 18.0443C5.81506 18.0443 2.42606 14.6553 2.42606 10.475C2.42606 6.29438 5.81506 2.90577 9.99532 2.90577C14.1756 2.90577 17.5646 6.29438 17.5646 10.475C17.5646 14.6553 14.1756 18.0443 9.99532 18.0443Z" fill="#FCC200"/>
<path d="M5.19775 15.9725C3.67824 14.6382 2.71924 12.6812 2.71924 10.5001C2.71924 6.47921 5.9786 3.21985 9.99947 3.21985C11.4112 3.21985 12.7288 3.62156 13.8445 4.31685" stroke="#1A1A18" stroke-width="0.75" stroke-miterlimit="10" stroke-linecap="round" stroke-linejoin="round"/>
<path d="M15.5 5.5C17 7 17.2797 8.25925 17.2797 10.5001C17.2797 14.521 14.0203 17.7804 9.99943 17.7804C8.52798 17.7804 7.64505 17.7507 6.5 17" stroke="#1A1A18" stroke-width="0.75" stroke-miterlimit="10" stroke-linecap="round" stroke-linejoin="round"/>
<path d="M9.99948 17.7803C9.99948 17.7803 4.90332 15.5963 4.90332 10.5001C4.90332 5.40389 9.99948 3.21985 9.99948 3.21985C9.99948 3.21985 8.05808 5.40392 8.05808 10.5001C8.05808 15.5963 9.99948 17.7803 9.99948 17.7803Z" stroke="#1A1A18" stroke-width="0.75" stroke-miterlimit="10" stroke-linecap="round" stroke-linejoin="round"/>
<path d="M9.99951 17.7803C9.99951 17.7803 15.0957 15.5963 15.0957 10.5001C15.0957 5.40389 9.99951 3.21985 9.99951 3.21985C9.99951 3.21985 11.9409 5.40392 11.9409 10.5001C11.9409 15.5963 9.99951 17.7803 9.99951 17.7803Z" stroke="#1A1A18" stroke-width="0.75" stroke-miterlimit="10" stroke-linecap="round" stroke-linejoin="round"/>
<path d="M2.83008 9.61853C3.33258 9.99885 5.56174 11.4709 9.99926 11.4709C14.4368 11.4709 16.6659 9.99885 17.1684 9.61853" stroke="#1A1A18" stroke-width="0.75" stroke-miterlimit="10" stroke-linecap="round" stroke-linejoin="round"/>
<path d="M3.57446 13.8025C7.72505 15.8679 12.2738 15.8679 16.4244 13.8025" stroke="#1A1A18" stroke-width="0.75" stroke-miterlimit="10" stroke-linecap="round" stroke-linejoin="round"/>
<path d="M4.10986 6.3186C8.0019 8.00891 11.9971 8.00891 15.8892 6.3186" stroke="#1A1A18" stroke-width="0.75" stroke-miterlimit="10" stroke-linecap="round" stroke-linejoin="round"/>
</svg>
