<svg width="20" height="21" viewBox="0 0 20 21" fill="none" xmlns="http://www.w3.org/2000/svg">
<path d="M17.8389 0.5H2.16114C0.967616 0.5 0 1.46762 0 2.66114V18.3389C0 19.5324 0.967616 20.5 2.16114 20.5H17.8389C19.0324 20.5 20 19.5324 20 18.3389V2.66114C20 1.46762 19.0324 0.5 17.8389 0.5ZM9.99532 18.0443C5.81506 18.0443 2.42606 14.6553 2.42606 10.475C2.42606 6.29438 5.81506 2.90577 9.99532 2.90577C14.1756 2.90577 17.5646 6.29438 17.5646 10.475C17.5646 14.6553 14.1756 18.0443 9.99532 18.0443Z" fill="#FCC200"/>
<path d="M9.99532 18.0443C5.81506 18.0443 2.42606 14.6553 2.42606 10.475C2.42606 6.29438 5.81506 2.90577 9.99532 2.90577C14.1756 2.90577 17.5646 6.29438 17.5646 10.475C17.5646 14.6553 14.1756 18.0443 9.99532 18.0443Z" fill="#FCC200"/>
<path d="M9.99929 15.3942C12.7022 15.3942 14.8934 13.2031 14.8934 10.5001C14.8934 7.79723 12.7022 5.60608 9.99929 5.60608C7.29637 5.60608 5.10522 7.79723 5.10522 10.5001C5.10522 13.2031 7.29637 15.3942 9.99929 15.3942Z" stroke="#1A1A18" stroke-width="1.27119" stroke-miterlimit="10" stroke-linecap="round" stroke-linejoin="round"/>
<path d="M9.99991 11.5711C10.5915 11.5711 11.0711 11.0915 11.0711 10.4999C11.0711 9.9083 10.5915 9.42871 9.99991 9.42871C9.4083 9.42871 8.92871 9.9083 8.92871 10.4999C8.92871 11.0915 9.4083 11.5711 9.99991 11.5711Z" stroke="#1A1A18" stroke-width="1.27119" stroke-miterlimit="10" stroke-linecap="round" stroke-linejoin="round"/>
<path d="M13.4307 7.07031L10.8005 9.70043" stroke="#1A1A18" stroke-width="1.27119" stroke-miterlimit="10" stroke-linecap="round" stroke-linejoin="round"/>
<path d="M9.19994 11.3008L6.56982 13.9309" stroke="#1A1A18" stroke-width="1.27119" stroke-miterlimit="10" stroke-linecap="round" stroke-linejoin="round"/>
<path d="M13.4307 13.9309L10.8005 11.3008" stroke="#1A1A18" stroke-width="1.27119" stroke-miterlimit="10" stroke-linecap="round" stroke-linejoin="round"/>
<path d="M9.19994 9.70018L6.56982 7.07007" stroke="#1A1A18" stroke-width="1.27119" stroke-miterlimit="10" stroke-linecap="round" stroke-linejoin="round"/>
<path d="M16.3072 14.56C17.0619 13.3898 17.5 11.9961 17.5 10.5C17.5 6.35787 14.1421 3 10 3C5.85787 3 2.5 6.35787 2.5 10.5C2.5 14.6421 5.85787 18 10 18C11.4961 18 12.8898 17.5619 14.06 16.8072" stroke="#1A1A18" stroke-width="1.27119" stroke-miterlimit="10" stroke-linecap="round" stroke-linejoin="round"/>
</svg>
