<svg width="20" height="20" viewBox="0 0 20 20" fill="none" xmlns="http://www.w3.org/2000/svg">
<mask id="mask0_172_1119" style="mask-type:alpha" maskUnits="userSpaceOnUse" x="0" y="0" width="20" height="20">
<rect width="20" height="20" rx="5" fill="#D9D9D9"/>
</mask>
<g mask="url(#mask0_172_1119)">
<path d="M18.1443 0H1.85568C1.36352 0 0.891524 0.195509 0.543517 0.543517C0.195509 0.891524 0 1.36352 0 1.85568L0 18.1443C0 18.6365 0.195509 19.1085 0.543517 19.4565C0.891524 19.8045 1.36352 20 1.85568 20H18.1443C18.6365 20 19.1085 19.8045 19.4565 19.4565C19.8045 19.1085 20 18.6365 20 18.1443V1.85568C20 1.36352 19.8045 0.891524 19.4565 0.543517C19.1085 0.195509 18.6365 0 18.1443 0ZM15.7636 13.5727C15.4727 13.6136 14.05 13.5727 13.9761 13.5727C13.6083 13.5776 13.2535 13.4371 12.9886 13.1818C12.6886 12.892 12.4205 12.5739 12.1273 12.2727C12.0409 12.1803 11.947 12.0952 11.8466 12.0182C11.6125 11.8386 11.3807 11.8784 11.2705 12.1557C11.1844 12.4541 11.1243 12.7594 11.0909 13.0682C11.0716 13.3477 10.8943 13.5227 10.5807 13.542C10.3864 13.5523 10.192 13.5568 10 13.5511C9.30003 13.5473 8.611 13.3771 7.98977 13.0545C7.3174 12.6803 6.73154 12.1684 6.27045 11.5523C5.5125 10.5841 4.90682 9.52045 4.36591 8.42386C4.3375 8.36818 3.78295 7.18864 3.76932 7.13295C3.71932 6.94773 3.76932 6.76932 3.92273 6.70682C4.02045 6.66932 5.84773 6.70682 5.87841 6.70682C6.01435 6.70589 6.14707 6.74822 6.25738 6.82768C6.36768 6.90715 6.44987 7.01963 6.49205 7.14886C6.83013 8.01363 7.29257 8.82444 7.86477 9.55568C7.94493 9.65308 8.03869 9.73843 8.14318 9.80909C8.29205 9.91136 8.43295 9.87614 8.49432 9.70341C8.56713 9.46535 8.60988 9.21912 8.62159 8.97046C8.63182 8.47727 8.62159 8.15341 8.59432 7.66023C8.57614 7.34432 8.46477 7.06818 7.99886 6.98409C7.85568 6.95795 7.84318 6.83977 7.93523 6.72159C8.12727 6.47727 8.38977 6.4375 8.68409 6.42273C9.12273 6.39773 9.56136 6.41477 10 6.42273H10.0955C10.2864 6.42203 10.4768 6.44146 10.6636 6.48068C10.7742 6.50325 10.8745 6.56089 10.9496 6.64504C11.0248 6.72919 11.0707 6.83535 11.0807 6.94773C11.1032 7.07215 11.1128 7.1986 11.1091 7.325C11.0977 7.8625 11.0716 8.40114 11.0659 8.93864C11.0606 9.15191 11.0801 9.36507 11.1239 9.57386C11.1864 9.86023 11.383 9.93182 11.5784 9.725C11.8319 9.45642 12.0641 9.16842 12.2727 8.86364C12.6429 8.31168 12.948 7.71871 13.1818 7.09659C13.3091 6.77727 13.4091 6.70682 13.75 6.70682H15.6886C15.8039 6.7048 15.9188 6.72012 16.0295 6.75227C16.0687 6.76257 16.1054 6.78085 16.1372 6.80596C16.169 6.83108 16.1952 6.86249 16.2143 6.89822C16.2334 6.93396 16.2449 6.97325 16.2481 7.01365C16.2513 7.05404 16.2462 7.09465 16.233 7.13295C16.1375 7.55795 15.908 7.92045 15.6648 8.26932C15.2705 8.82727 14.8545 9.37159 14.4511 9.92273C14.4026 9.99398 14.3582 10.068 14.3182 10.1443C14.1659 10.4193 14.1773 10.5727 14.3977 10.8C14.75 11.1625 15.1261 11.5011 15.4659 11.8739C15.7151 12.1451 15.9402 12.4374 16.1386 12.7477C16.3807 13.1386 16.2273 13.5068 15.7636 13.5727Z" fill="white"/>
<path d="M17.8389 0H2.16114C0.967616 0 0 0.967616 0 2.16114V17.8389C0 19.0324 0.967616 20 2.16114 20H17.8389C19.0324 20 20 19.0324 20 17.8389V2.16114C20 0.967616 19.0324 0 17.8389 0ZM9.99532 17.5443C5.81506 17.5443 2.42606 14.1553 2.42606 9.97503C2.42606 5.79438 5.81506 2.40577 9.99532 2.40577C14.1756 2.40577 17.5646 5.79438 17.5646 9.97503C17.5646 14.1553 14.1756 17.5443 9.99532 17.5443Z" fill="white"/>
<path d="M9.99532 17.5443C5.81506 17.5443 2.42606 14.1553 2.42606 9.97503C2.42606 5.79438 5.81506 2.40577 9.99532 2.40577C14.1756 2.40577 17.5646 5.79438 17.5646 9.97503C17.5646 14.1553 14.1756 17.5443 9.99532 17.5443Z" fill="white"/>
<path fill-rule="evenodd" clip-rule="evenodd" d="M15.1947 6.43264C15.0284 8.11954 14.309 12.2125 13.9428 14.1018C13.7879 14.9012 13.4832 15.169 13.1876 15.1954C12.5462 15.252 12.0587 14.7858 11.4373 14.3926C10.465 13.7774 9.91541 13.3941 8.97164 12.7937C7.88036 12.0998 8.58776 11.7182 9.20972 11.0947C9.37205 10.9314 12.1994 8.44889 12.254 8.22401C12.2609 8.19597 12.2671 8.09095 12.2028 8.03541C12.1384 7.97988 12.0427 7.99858 11.9738 8.01397C11.8764 8.03541 10.3226 9.02677 7.31307 10.988C6.87223 11.28 6.47296 11.4224 6.11471 11.4153C5.72057 11.407 4.96134 11.1997 4.39747 11.0227C3.70545 10.8055 3.15525 10.6906 3.2031 10.3222C3.22816 10.1297 3.50212 9.93345 4.02555 9.73276C7.24643 8.37796 9.39426 7.48448 10.469 7.0534C13.5378 5.82122 14.1752 5.60678 14.591 5.60018C14.6821 5.59853 14.8866 5.61998 15.0193 5.7239C15.1309 5.81132 15.1617 5.92954 15.1765 6.01256C15.1913 6.09559 15.2095 6.28473 15.1947 6.43264Z" fill="#1A1A18"/>
</g>
</svg>
