<svg width="90" height="90" viewBox="0 0 90 90" fill="none" xmlns="http://www.w3.org/2000/svg">
<path fill-rule="evenodd" clip-rule="evenodd" d="M45 0C20.1471 0 0 20.1479 0 45.0001C0 69.8527 20.1471 90 45 90C69.8522 90 90 69.8527 90 45.0001C90 20.1479 69.852 0 45 0ZM45 85.9649C22.3753 85.9649 4.03489 67.6244 4.03489 44.9999C4.03489 22.3758 22.3753 4.03466 45 4.03466C67.6241 4.03466 85.9651 22.3758 85.9651 44.9999C85.9649 67.6246 67.6239 85.9649 45 85.9649ZM36.0309 14.3936C38.8764 13.5614 41.8855 13.1156 45 13.1156C48.1096 13.1156 51.1167 13.5606 53.9587 14.391L45 34.2495L36.0309 14.3936ZM62.1148 18.0934C65.4751 20.2357 68.4066 22.9893 70.7536 26.1978L56.0494 58.7366L50.3753 46.1205H39.6247L33.9508 58.7366L19.268 26.1674C21.6108 22.9716 24.5341 20.229 27.8835 18.0942L39.6247 44.1415H50.4119L62.1148 18.0934ZM14.1928 36.7477L30.7668 73.5404C20.3013 68.3112 13.1145 57.4953 13.1145 44.9999C13.1148 42.1467 13.4899 39.3802 14.1928 36.7477ZM36.1789 75.6494L45 56.0865L53.811 75.6526C51.0125 76.4551 48.0564 76.8853 45 76.8853C41.9397 76.8853 38.9796 76.454 36.1789 75.6494ZM59.2321 73.5404L75.8255 36.8174C76.5166 39.4286 76.8844 42.1712 76.8844 44.9999C76.8844 57.4953 69.6976 68.3114 59.2321 73.5404Z" fill="#FCC200"/>
</svg>
