<svg width="120" height="62" viewBox="0 0 120 62" fill="none" xmlns="http://www.w3.org/2000/svg">
<path fill-rule="evenodd" clip-rule="evenodd" d="M39.194 30.3317C42.5341 35.1004 45.9072 39.9012 49.2311 44.5713C49.3955 44.7855 49.4614 45.6108 48.7867 45.6108L41.7114 45.6605C40.971 45.6605 40.2635 45.0662 39.9014 44.6373L35.4916 39.1921L31.3288 34.0277L31.3124 44.5382C31.3124 44.9842 30.9172 45.6436 30.4564 45.6606L23.9408 45.6932C23.4801 45.6932 22.8218 44.967 22.8218 44.4885V19.2605C22.8218 18.9963 21.6373 18.7985 21.6535 17.8415C21.6698 16.8679 22.1472 16.67 22.6739 16.67H30.2758C30.687 16.67 31.3617 17.0823 31.3617 17.7259L31.3288 27.1639L35.4916 21.7023L38.4864 17.7919C38.9142 17.2473 39.9014 16.6205 40.395 16.6205L47.0261 16.67C47.7171 16.67 48.112 17.231 47.7828 17.7259L39.194 30.3317ZM63.6119 16.6702H59.7781H56.0921C55.204 16.6702 55.0063 17.198 54.8582 17.759C55.0225 18.7821 56.0921 19.0623 56.0921 19.079V44.5382C56.0921 45.2147 56.5036 45.6606 57.0797 45.6606L59.7781 45.6436L63.793 45.611C64.5333 45.611 64.7307 45.1656 64.7307 44.5382V17.7261C64.7305 17.0825 64.1874 16.6702 63.6119 16.6702ZM86.4998 3.66787C106.327 8.65107 120 19.046 120 31.0084C120 42.971 106.327 53.3658 86.4998 58.3487C78.5028 60.3781 69.5024 61.5 59.9919 61.5C59.9261 61.5 59.8604 61.5 59.778 61.5C51.1561 61.5 42.929 60.5434 35.4916 58.8437C14.6112 54.0586 0 43.3667 0 31.0084C0 18.65 14.6113 7.95807 35.4916 3.17296C42.929 1.47356 51.1562 0.516561 59.778 0.516561C59.8604 0.516561 59.9261 0.5 59.9919 0.5C69.5024 0.5 78.5028 1.63838 86.4998 3.66787ZM86.4998 51.6993C103.825 47.7064 115.623 39.9182 115.623 31.0084C115.623 22.0985 103.825 14.3106 86.4998 10.3175C78.6181 8.48594 69.5843 7.44673 59.9919 7.44673C59.9261 7.44673 59.8604 7.44673 59.778 7.44673C51.0901 7.46299 42.8465 8.33771 35.4916 9.87199C17.0795 13.7163 4.3769 21.752 4.3769 31.0084C4.3769 40.2643 17.0795 48.2999 35.4916 52.1447C42.8466 53.6793 51.0901 54.5535 59.778 54.5535C59.8604 54.5535 59.9261 54.5705 59.9919 54.5705C69.5845 54.5705 78.6181 53.531 86.4998 51.6993ZM91.6824 17.759C91.4356 17.198 91.0079 16.6702 90.4484 16.6702H86.4998H80.2797C79.9177 16.6702 79.4241 16.967 79.4241 17.4622C79.4079 18.9139 80.9212 18.8645 80.8392 19.079L72.2664 44.4395C72.1187 44.8684 72.4969 45.6606 73.0231 45.6606L78.9962 45.611C79.5231 45.611 80.2634 45.1656 80.477 44.5218L83.3069 36.0075C84.2616 33.1695 85.2161 30.3318 86.1538 27.4938C86.2032 27.3782 86.351 27.3123 86.4995 27.3123C86.7294 27.3123 86.9761 27.3946 87.0256 27.5597L92.5709 44.6208C92.6856 44.9996 93.4591 45.6107 93.8707 45.6107L100.09 45.6603C100.452 45.6603 100.88 44.9342 100.765 44.6039L91.6824 17.759Z" fill="white"/>
</svg>
