<svg width="153" height="90" viewBox="0 0 153 90" fill="none" xmlns="http://www.w3.org/2000/svg">
<path fill-rule="evenodd" clip-rule="evenodd" d="M13.245 89.8599C5.94108 89.8599 0 83.8851 0 76.4774C0 69.1051 5.9408 63.0945 13.245 63.0945C18.068 63.0945 22.2967 65.6803 24.6379 69.594L19.955 72.3543C18.6269 70.1531 16.041 68.546 13.2453 68.546C9.05141 68.546 5.38217 72.25 5.38217 76.4774C5.38217 80.7405 9.05169 84.4097 13.2453 84.4097C16.041 84.4097 18.662 82.8368 19.955 80.5303L24.673 83.326C22.3313 87.239 18.1026 89.8599 13.245 89.8599ZM32.5011 89.231H26.8398V63.7937H32.5011V89.231ZM47.8428 89.2408H42.1816V69.175H34.1438V63.7937H55.8814V69.175H47.8431V89.2408H47.8428ZM62.9403 75.4644H69.0563C71.1883 75.4644 73.0405 74.5908 73.0405 72.1096C73.0405 69.6285 71.3278 68.6504 69.0563 68.6504H62.9403V75.4644ZM62.9403 80.1112V89.231H57.4534V63.7937H69.8599C75.3117 63.7937 78.5619 66.8339 78.5619 72.0398C78.5619 76.1981 76.4646 78.8184 73.0051 79.7275L79.6802 89.231H73.2496L67.343 80.1112H62.9403ZM93.6939 90C86.2849 90 80.2742 83.9196 80.2742 76.5827C80.2742 69.2095 86.2847 63.1644 93.6939 63.1644C101.138 63.1644 107.289 69.175 107.289 76.5827C107.289 83.9196 101.138 90 93.6939 90ZM93.6939 68.7901C89.361 68.7901 85.9009 72.3195 85.9009 76.6517C85.9009 80.9145 89.4301 84.374 93.6939 84.374C97.9922 84.374 101.487 80.9145 101.487 76.6517C101.488 72.3195 98.0624 68.7901 93.6939 68.7901ZM117.214 60.9289C117.214 62.1518 116.096 63.1299 114.873 63.1299C113.614 63.1299 112.706 62.1518 112.706 60.9289C112.706 59.7052 113.684 58.6922 114.942 58.6922C116.166 58.6922 117.214 59.7052 117.214 60.9289ZM125.357 60.9289C125.357 62.1518 124.273 63.1299 123.015 63.1299C121.792 63.1299 120.883 62.1518 120.883 60.9289C120.883 59.7052 121.862 58.6922 123.085 58.6922C124.308 58.6922 125.357 59.7052 125.357 60.9289ZM114.907 68.8603V73.6472H127.034V78.2947H114.907V83.9549H128.641V89.231H109.455C109.455 89.231 109.455 66.2395 109.455 66.2745V63.7934H128.641V68.86L114.907 68.8603ZM136.19 72.4941V89.2307H130.668V63.7934H137.344L147.443 80.9846V63.7934H153V89.2307H146.185L136.19 72.4941ZM101.997 51.0104V0H50.9784V51.0104H101.997ZM52.6806 49.3115L76.4882 28.9047L100.299 49.3115L76.4882 17.9538L52.6806 49.3115ZM76.4882 1.70196L52.6806 33.0588L76.4882 12.6528L100.302 33.0588L76.4882 1.70196Z" fill="white"/>
</svg>
