<svg width="81" height="90" viewBox="0 0 81 90" fill="none" xmlns="http://www.w3.org/2000/svg">
<path fill-rule="evenodd" clip-rule="evenodd" d="M40.3009 47.7911L27.0226 71.2669H0L13.3559 47.7911H40.3009ZM53.9919 23.7089L40.5193 0L27.0079 23.7089L40.5193 47.4562L53.9919 23.7089ZM53.9768 71.2669H81L67.6435 47.7911H40.6989L53.9768 71.2669ZM52.7792 89.6611H54.7961V78.87H52.7792V89.6611ZM75.4102 89.6611H77.4273V78.87H75.4102V89.6611ZM14.8532 89.6611H16.8704V78.87H14.8532V89.6611ZM24.5833 78.87H18.3422V80.6999H20.4225V89.6611H22.5029V80.6999H24.5833V78.87ZM71.3691 82.9716H66.8253V78.8698H64.8078V89.6608H66.8253V84.8018H71.3691V89.6608H73.3866V78.8698H71.3691V82.9716ZM8.33901 83.6975L6.44763 78.87H4.11522V89.6611H6.13251V82.9716L8.33901 88.3357L10.4824 82.9087V89.6611H12.4997V78.87H10.2301L8.33901 83.6975ZM41.6786 78.8709H39.6798V86.5698C39.6798 87.4079 38.7424 88.0866 37.9054 88.0866C37.0684 88.0866 36.1308 87.4079 36.1308 86.5698V78.8709H34.0949L34.125 86.4747C34.125 88.4216 35.9604 90 37.9052 90C39.8501 90 41.6853 88.4214 41.6853 86.4747L41.6786 78.8709ZM49.46 83.8238C50.3108 84.297 51.1621 84.9912 51.1621 86.7896C51.1621 88.8722 49.3967 89.6611 47.758 89.6611H43.6205V78.87H48.2937C49.3022 78.9015 50.8151 79.7533 50.8151 81.6464C50.8151 83.0031 49.7435 83.6346 49.46 83.8238ZM47.8521 87.8312C48.388 87.8312 49.1493 87.3886 49.176 86.4425C49.2079 85.3386 48.4194 84.802 47.8521 84.802H46.9079V82.9718H47.7892C48.5458 82.9718 48.7662 82.3094 48.7662 81.7414C48.7662 81.1734 48.3252 80.6999 47.7578 80.6999H45.638V87.8312H47.8521ZM25.391 86.1587C25.3753 86.269 25.3911 86.3949 25.3982 86.6002C25.3982 88.4611 26.9048 89.8747 28.7636 89.8747C30.6225 89.8747 32.1291 88.6184 32.1291 86.7582C32.1291 85.7791 31.7462 85.0227 31.0805 84.4073C30.537 83.9051 28.9885 83.1512 28.3854 82.7824C27.818 82.4353 27.55 82.167 27.5367 81.6624C27.5367 80.923 28.0253 80.4024 28.7636 80.4024C29.5022 80.4024 30.1008 81.0018 30.1008 81.7408C30.1145 81.9306 30.1189 82.1194 30.1189 82.2459H31.9062V81.7408C31.9062 80.0035 30.8123 78.6267 28.7634 78.6267C27.0279 78.6267 25.6209 79.8162 25.6209 81.7408C25.6272 82.593 26.0213 83.4133 26.9985 84.0602C28.0484 84.7555 29.3624 85.275 29.8036 85.7168C30.07 85.9836 30.2347 86.3514 30.2347 86.7582C30.2347 87.5713 29.5761 88.1516 28.7634 88.1516C27.9511 88.1516 27.2977 87.4367 27.1977 86.7582C27.1765 86.5843 27.1242 86.2846 27.14 86.1587H25.391ZM59.4637 82.7824C58.8963 82.4353 58.6284 82.167 58.6153 81.6624C58.6153 80.923 59.1033 80.4024 59.8419 80.4024C60.5806 80.4024 61.1794 81.0018 61.1794 81.7408C61.1924 81.9306 61.1971 82.1194 61.1971 82.2459H62.9846V81.7408C62.9846 80.0035 61.8907 78.6267 59.8417 78.6267C58.1063 78.6267 56.6989 79.8162 56.6989 81.7408C56.7054 82.593 57.0997 83.4133 58.0767 84.0602C59.1266 84.7555 60.4405 85.275 60.8822 85.7168C61.1483 85.9836 61.3131 86.3514 61.3131 86.7582C61.3131 87.5713 60.6542 88.1516 59.8419 88.1516C59.0296 88.1516 58.3763 87.4367 58.2765 86.7582C58.2553 86.5843 58.2028 86.2846 58.2187 86.1587H56.4693C56.4537 86.269 56.4692 86.3949 56.4768 86.6002C56.4768 88.4611 57.9836 89.8747 59.8421 89.8747C61.701 89.8747 63.2079 88.6184 63.2079 86.7582C63.2079 85.7791 62.8246 85.0227 62.159 84.4073C61.6153 83.9051 60.0668 83.1512 59.4637 82.7824Z" fill="#FCC200"/>
</svg>
