<svg width="90" height="90" viewBox="0 0 90 90" fill="none" xmlns="http://www.w3.org/2000/svg">
<path fill-rule="evenodd" clip-rule="evenodd" d="M45 0C20.1482 0 0 20.1467 0 45.0001C0 69.8531 20.1482 90 45 90C69.8538 90 90 69.8531 90 45.0001C90 20.1469 69.8538 0 45 0ZM45 87.7499C21.3895 87.7499 2.25209 68.6103 2.25209 45.0001C2.25209 21.3899 21.3895 2.24952 45 2.24952C68.6105 2.24952 87.7496 21.3899 87.7496 45.0001C87.7496 68.6103 68.6105 87.7499 45 87.7499ZM88.0719 45.0003C88.0719 68.7868 68.7864 88.0721 45 88.0721C21.2136 88.0721 1.9298 68.7868 1.9298 45.0003C1.9298 21.2125 21.2136 1.92832 45 1.92832C68.7864 1.92832 88.0719 21.2123 88.0719 45.0003ZM87.7496 45.0001C87.7496 68.6103 68.6105 87.7499 45 87.7499C21.3895 87.7499 2.25209 68.6103 2.25209 45.0001C2.25209 21.3899 21.3895 2.24952 45 2.24952C68.6105 2.24952 87.7496 21.3899 87.7496 45.0001ZM73.6604 45.0003C73.6604 60.8288 60.8288 73.66 45 73.66C29.1712 73.66 16.3397 60.8286 16.3397 45.0003C16.3397 29.1712 29.1712 16.3393 45 16.3393C60.8288 16.3391 73.6604 29.171 73.6604 45.0003ZM43.6763 15.5647L40.6991 7.67387V15.5647H38.4378V4.26375H41.836L44.9268 12.355H44.8975L47.9881 4.26375H51.3861V15.5647H49.125V7.67387L46.1479 15.5647H43.6763ZM77.1794 20.6321L73.3159 26.2653L79.3841 23.2808L81.0299 25.2545L71.4796 30.05L69.5498 27.7137L73.252 22.132L73.2298 22.1045L67.0724 24.7402L65.1204 22.4194L71.5601 13.8924L73.2063 15.8672L69.1743 21.2972L75.4145 18.5139L77.1794 20.6321ZM24.9855 18.4732C24.0753 17.5897 22.671 17.3234 21.3509 18.1417C21.6037 17.4879 21.5012 16.8224 21.3675 16.4536C20.7981 15.4181 20.5985 15.2872 20.1335 14.8946C18.6156 13.6229 17.0191 14.7085 15.8783 16.0681L10.3635 22.6405L19.033 29.9142L24.8482 22.9848C26.1776 21.4011 26.3825 19.831 24.9855 18.4732ZM13.7707 21.6429L17.083 17.6952C17.4675 17.2384 18.3355 17.2567 18.892 17.7253C19.5056 18.2399 19.507 18.9686 19.0952 19.4603L15.8195 23.3622L13.7707 21.6429ZM22.9094 22.2993L19.456 26.4145L17.2938 24.5973L20.7725 20.45C21.1662 19.9813 22.0433 19.8448 22.6345 20.3409C23.301 20.9012 23.3668 21.7535 22.9094 22.2993ZM46.1718 15.1279L49.1489 7.23704V15.1279H51.4102V3.82692H48.0118L44.9212 11.9182H44.9505L41.8597 3.82692H38.4613V15.1279H40.7226V7.23704L43.6999 15.1279H46.1718ZM77.2016 19.8739L73.34 25.5071L79.4078 22.5215L81.0521 24.4963L71.5035 29.2916L69.5737 26.9544L73.2759 21.3734L73.2541 21.3449L67.0945 23.9818L65.1447 21.6599L71.5842 13.1337L73.23 15.1077L69.1985 20.5376L75.4365 17.7553L77.2016 19.8739ZM24.5808 18.2509C23.6728 17.3675 22.2666 17.101 20.9484 17.9187C21.1992 17.2649 21.0965 16.5994 20.963 16.2321C20.3934 15.1949 20.1957 15.0657 19.7269 14.6722C18.2091 13.3996 16.6143 14.4862 15.4753 15.8468L9.95848 22.4184L18.6283 29.692L24.4434 22.7617C25.7711 21.1777 25.978 19.6087 24.5808 18.2509ZM13.3662 21.4203L16.6783 17.4734C17.0611 17.0157 17.9288 17.0341 18.4873 17.5017C19.1006 18.0173 19.1025 18.7469 18.6886 19.2366L15.4148 23.1396L13.3662 21.4203ZM22.5066 22.0767L19.0531 26.1919L16.8871 24.3747L20.3678 20.2265C20.7613 19.7587 21.6366 19.6224 22.228 20.1184C22.8982 20.6797 22.9643 21.5303 22.5066 22.0767ZM17.2935 45.0005C17.2935 29.6978 29.6985 17.2926 44.9998 17.2926C60.303 17.2926 72.7062 29.6978 72.7062 45.0005C72.7062 60.3026 60.303 72.7076 44.9998 72.7076C29.6985 72.7076 17.2935 60.3024 17.2935 45.0005ZM18.0901 45.0005C18.0901 30.1383 30.1381 18.0892 45 18.0892C59.8621 18.0892 71.9117 30.1383 71.9117 45.0005C71.9117 59.863 59.8621 71.9121 45 71.9121C30.1379 71.9121 18.0901 59.863 18.0901 45.0005ZM45 18.0481V45.0005H18.0481C18.0481 30.1144 30.114 18.0481 45 18.0481ZM71.9521 45.0005C71.9521 59.885 59.8858 71.9533 45 71.9533V45.0005H71.9521ZM72.1753 45.4776H45.4779V72.1765H44.5221V45.4776H17.8247V44.5217H44.5221V17.8235H45.4779V44.5217H72.1753V45.4776ZM45.4779 18.101C59.9592 18.3535 71.6445 30.041 71.8989 44.5215H71.4232C71.1685 30.3047 59.6955 18.8323 45.4781 18.5796L45.4779 18.101ZM18.0535 44.5181C18.308 30.0182 30.008 18.3152 44.5094 18.0616V18.5395C30.2735 18.7931 18.7841 30.2819 18.5316 44.5181H18.0535ZM44.5221 71.899C30.0408 71.6465 18.3555 59.959 18.1011 45.4774H18.5788C18.8315 59.6953 30.3045 71.1683 44.5221 71.4209V71.899ZM71.8989 45.4776C71.6462 59.959 59.9592 71.6467 45.4779 71.8992V71.4211C59.6955 71.1687 71.1683 59.6955 71.423 45.4776H71.8989ZM44.5221 18.0616V43.9971V44.5088H44.0112H18.0774V43.9971H44.0114V18.0616H44.5221ZM43.9673 71.6484V46.0249H18.2916V45.5196H43.9673H44.4728V46.0249V71.6484H43.9673ZM45.5219 71.6484V46.0249V45.5196H46.0254H71.6481V46.0249H46.0254V71.6484H45.5219ZM46.0254 18.2905V43.9138H71.6481V44.4182H46.0254H45.5219V43.9138V18.2905H46.0254Z" fill="white"/>
</svg>
