<svg width="200" height="34" viewBox="0 0 200 34" fill="none" xmlns="http://www.w3.org/2000/svg">
<path fill-rule="evenodd" clip-rule="evenodd" d="M188.893 0.154827C191.068 0.154827 200 -0.230881 200 11.1797V33.9226H173.825C172.591 34.076 164.005 33.4642 163.889 23.4831C161.709 33.9179 153.118 34 152.234 34H126.835V7.97237L94.6802 33.8451H88.7769V33.9226H62.602C61.4446 34.0664 53.7157 33.4848 52.6605 25.1809V33.8837H41.0094L40.9706 14.4557C41.2046 9.13558 38.4466 9.82979 37.3598 9.8685H32.1547V33.9224H20.6604V9.71365H12.1164V33.9224H0V0.154635H40.8542C53.2812 0.154635 52.3499 8.63492 52.6607 11.4103V20.4579C53.0257 17.2072 54.7722 12.5665 63.4564 12.5665H77.8257C77.8257 12.5665 79.1848 8.90452 72.7773 8.90452H54.3698V0.154635H77.6705C79.8454 0.154635 88.7773 -0.231072 88.7773 11.1795V25.2727L120.545 0.0772095H126.835V0.0577573L152.408 0.0772095C165.69 0.0772095 164.35 13.8777 164.35 16.5372C164.382 17.1976 164.393 17.8312 164.387 18.4419C165.262 15.5673 167.721 12.5665 174.68 12.5665H189.05C189.05 12.5665 190.409 8.90452 184.001 8.90452H165.593V0.154635L188.893 0.154827ZM77.7481 25.5582V20.3528H66.3304C65.3985 20.3528 63.6511 20.4689 63.6511 23.0135C63.6511 23.4754 63.8837 25.558 66.214 25.558L77.7481 25.5582ZM148.335 23.9788H137.892V9.99817L148.431 9.98246C153.893 9.98246 153.318 15.7041 153.318 16.7987C153.653 23.9317 148.766 23.9788 148.335 23.9788ZM188.971 25.5582V20.3528H177.553C176.621 20.3528 174.874 20.4689 174.874 23.0135C174.874 23.4754 175.107 25.558 177.438 25.558L188.971 25.5582ZM117.205 0H90.6413V10.0235H104.7L117.205 0ZM97.4369 33.8837H124V23.8615H109.942L97.4369 33.8837Z" fill="white"/>
</svg>
