<svg width="130" height="80" viewBox="0 0 130 80" fill="none" xmlns="http://www.w3.org/2000/svg">
<path fill-rule="evenodd" clip-rule="evenodd" d="M87.6992 79.5946C80.2179 79.5946 74.1307 75.5487 74.1307 70.5813C74.1307 64.4299 80.2179 61.5679 87.6992 61.5679C88.1586 61.5679 88.6021 61.5838 89.0617 61.6004L83.6797 55.5965H91.9497C95.099 59.4786 101.268 65.827 101.268 70.581C101.268 75.5487 95.1647 79.5946 87.6992 79.5946ZM50.6027 62.0778V72.4069C50.6027 82.4897 72.3751 82.5722 72.3751 72.4069V62.0778H65.5989V71.7494C65.5989 76.6836 57.5433 76.6836 57.5433 71.7494V62.0778H50.6027ZM102.876 62.0778V79.5294H110.325V62.0778H102.876ZM26.8447 56.2057L29.2567 59.1502L15.8682 79.5294H23.9078L26.0899 75.9269H41.3818L43.6623 79.5294H52.0631L35.9835 56.2057H26.8447ZM107.274 0.00175679C101.892 -0.0641693 96.9042 1.7288 92.9334 4.80413C89.1267 1.87652 84.4018 0.116041 79.266 0.0508473C73.8847 -0.0316824 68.8802 1.77786 64.9262 4.85319C61.1361 1.92558 56.3944 0.149232 51.2423 0.083306C45.8934 0.0015088 40.9385 1.79375 36.9679 4.82073C33.1778 1.9256 28.4688 0.181973 23.3495 0.100176C10.6666 -0.0641507 0.182428 10.1664 0.00194732 22.8808C-0.161971 35.5958 10.0436 46.09 22.7262 46.2704C28.0751 46.3363 33.0468 44.56 37.0008 41.5171C40.7909 44.4123 45.5166 46.1718 50.6356 46.2377C56.0169 46.3195 61.0051 44.5107 64.9754 41.4346C68.7655 44.3622 73.4912 46.1386 78.6428 46.2045C84.0241 46.287 89.012 44.4775 92.9833 41.4187C96.7727 44.3297 101.515 46.1061 106.651 46.172C119.334 46.3363 129.818 36.1217 129.998 23.4072C130.162 10.693 119.957 0.182199 107.274 0.00175679ZM93.2454 8.65298C89.5535 5.1169 84.4019 2.74843 79.2337 2.68251C79.2003 2.68251 79.1679 2.68251 79.1355 2.68251C78.8235 1.95903 78.4954 1.36667 78.1668 0.889558C73.2281 1.05389 68.6673 2.86346 65.0575 5.79106L65.2214 8.53772C61.5792 5.05096 56.3454 2.78092 51.2096 2.715C50.816 1.81059 50.3403 1.18552 50.1596 0.922792C45.2703 1.08712 40.758 2.86345 37.1487 5.72513L37.3126 8.60365C33.5717 4.91911 28.5676 2.81413 23.3173 2.7316C23.2842 2.7316 23.2516 2.7316 23.2188 2.7316C22.9233 2.00812 22.5789 1.41576 22.2506 0.938649C10.5193 1.34983 0.986647 10.989 0.822728 22.8972C0.789847 25.6438 1.26557 28.276 2.13534 30.7265C2.74254 30.9074 3.44786 31.0554 4.23554 31.1211C7.28716 38.3747 14.4246 43.5235 22.7596 43.6385C27.3041 43.7044 31.5374 42.2567 34.9668 39.7564C35.7379 39.1973 36.427 38.6384 37.0013 38.0953C40.6765 41.5328 45.5826 43.5401 50.6687 43.6053C55.9523 43.6878 61.1697 41.5987 64.9927 38.0135C68.569 41.4016 73.3769 43.5069 78.6766 43.5728C84.2221 43.6553 89.0125 41.5328 92.9673 37.9635C96.5601 41.3526 101.384 43.4576 106.684 43.5401C117.923 43.6878 127.718 34.6413 127.374 23.3743C126.931 9.7222 118.186 3.14253 107.242 2.6327C107.111 2.6327 106.356 1.10321 106.176 0.839752C101.237 1.02068 96.6919 2.81365 93.0659 5.7415L93.2454 8.65298ZM23.3003 3.88309C12.6848 3.75124 3.92331 12.3048 3.77547 22.9309C3.66075 32.2069 10.1252 40.0531 18.8044 42.0104C19.0998 41.6324 19.4282 41.2212 19.756 40.8098C20.7405 40.9907 21.7578 41.0894 22.7915 41.106C26.8276 41.1553 30.5524 39.8719 33.7517 37.4874L36.426 37.5367C34.6212 35.6944 33.1447 33.5069 32.1273 31.0888C31.3397 31.0229 30.6506 30.8913 30.0434 30.7101C29.1575 28.2596 28.6819 25.6114 28.7308 22.8649C28.7963 17.7823 30.5685 13.1108 33.5054 9.39306C34.6378 9.36058 35.7859 9.34448 36.4421 9.34448C32.9479 5.93903 28.2552 3.94902 23.3003 3.88309ZM32.6361 37.158C29.6008 33.1941 27.8289 28.2264 27.911 22.8649C27.9763 17.7163 29.7319 12.9958 32.6361 9.17941C29.9618 7.33714 26.7458 6.23495 23.2675 6.18587C13.9316 6.07063 6.20354 13.6038 6.0725 22.9633C5.95754 32.3388 13.472 40.0531 22.8081 40.1847C27.0578 40.234 30.569 38.5239 32.6361 37.158ZM37.0169 9.91949C33.8177 13.3245 31.816 17.8807 31.6845 22.914C31.5864 26.319 32.8987 31.7137 35.4912 34.7241C35.9832 35.2996 36.377 35.9413 37.0498 36.5329L37.1155 34.0824C39.5933 31.1213 40.8727 27.3052 40.9222 23.4397C40.9385 21.4172 40.6431 19.4758 40.0525 17.6668C40.4132 16.7123 41.0861 16.2025 41.0861 16.2025C40.4628 13.9661 38.658 11.614 37.0169 9.91949ZM64.9591 9.91949C61.7596 13.3086 59.7746 17.8648 59.7088 22.8808C59.643 28.1278 61.6939 32.9311 65.0572 36.4669L65.123 34.1808C67.1899 30.8418 68.7487 27.618 68.7979 23.407C68.831 21.4007 68.519 19.4597 67.9289 17.6336C68.2893 16.6799 68.9784 16.17 68.9784 16.17C68.4374 14.2623 66.5008 11.4658 64.9591 9.91949ZM37.0006 32.832C38.8549 30.1512 39.9538 26.9108 40.003 23.4241C40.0524 19.7564 38.9203 16.3348 36.9842 13.5222C35.13 16.203 34.0306 19.4434 33.9818 22.947C33.9324 26.6147 35.0482 30.0194 37.0006 32.832ZM89.5211 9.32811L92.4083 9.34471C88.8155 5.95587 84.2703 3.89996 79.2169 3.83403C73.9995 3.76811 69.2249 5.79129 65.7299 9.13032C69.372 12.9299 71.4069 18.1278 71.3244 23.44C71.2586 28.5068 69.2412 33.5396 65.8115 37.2073C68.2567 39.5108 71.3086 41.1877 74.7209 41.961C75.0163 41.5664 75.3444 41.155 75.673 40.7438C76.6575 40.9248 77.6746 41.0234 78.7083 41.04C83.0727 41.1059 86.7478 39.5106 89.8655 37.4048L92.3264 37.3389C90.5706 35.5135 89.1431 33.375 88.1427 31.0229C87.3548 30.957 86.6656 30.8093 86.0588 30.6281C85.1725 28.1769 84.7131 25.5454 84.7462 22.7988C84.812 17.7163 86.5997 13.0449 89.5211 9.32811ZM78.7251 40.119C83.0238 40.1849 86.5674 38.4245 88.6348 37.0596C85.6163 33.0957 83.8602 28.128 83.9259 22.7824C83.9917 17.667 85.731 12.9624 88.6023 9.16355C85.9275 7.30468 82.6791 6.18587 79.1844 6.13655C75.4925 6.08722 72.0636 7.22189 69.2414 9.21261C72.2601 13.1765 74.0318 18.1273 73.9502 23.4729C73.8845 28.5883 72.1452 33.2922 69.2738 37.0925C71.9647 38.9675 75.2136 40.0697 78.7251 40.119ZM125.01 16.1043C123.484 10.6603 115.773 3.7847 107.224 3.7847C102.023 3.71878 97.2654 5.74199 93.7374 9.06442C97.3802 12.8972 99.4307 18.1112 99.3652 23.4072C99.2994 28.3414 97.3144 33.638 93.8032 37.1746C96.2642 39.4607 99.316 41.1384 102.729 41.9117C103.025 41.533 103.352 41.1226 103.68 40.6945C104.665 40.8923 105.682 40.9907 106.716 41.0073C116.56 41.1384 124.698 33.2104 124.846 23.3413C124.863 21.3181 124.551 19.3775 123.96 17.5684C124.321 16.6142 125.01 16.1043 125.01 16.1043ZM97.0029 16.1371C96.3954 13.9334 94.5745 11.5481 92.9334 9.8704C89.7507 13.2754 87.765 17.8147 87.6992 22.8317C87.6342 28.1446 89.7174 32.9804 93.147 36.5331L93.1796 34.1813C95.6406 30.8098 96.7725 27.8162 96.8382 23.375C96.8548 21.3684 96.5593 19.427 95.9526 17.6014C96.3297 16.6476 97.0029 16.1371 97.0029 16.1371ZM107.192 6.08749C103.5 6.03816 100.071 7.18968 97.2655 9.16355C100.284 13.1274 102.057 18.0943 101.991 23.44C101.909 28.5561 100.186 33.2766 97.2979 37.0596C99.9895 38.935 103.238 40.0365 106.732 40.0856C116.069 40.2008 123.796 32.6843 123.927 23.3255C124.042 13.9661 116.528 6.21934 107.192 6.08749ZM92.9665 32.7009C94.7877 30.036 95.8703 26.8288 95.9195 23.3579C95.9687 19.7227 94.8534 16.3346 92.9334 13.5388C91.1291 16.2027 90.0455 19.4099 89.997 22.8649C89.9471 26.5001 91.0467 29.9044 92.9665 32.7009ZM64.9591 32.7167C66.7639 30.0526 67.83 26.8447 67.8792 23.3914C67.9291 19.772 66.8294 16.3839 64.9425 13.5879C63.1377 16.2521 62.055 19.46 62.0058 22.914C61.9564 26.5329 63.0556 29.921 64.9591 32.7167ZM51.1931 3.86649C46.0081 3.8013 41.2993 5.80789 37.8046 9.13032C41.4305 13.0124 43.5147 17.8975 43.4489 23.4732C43.3832 28.6218 41.3158 33.6053 37.8046 37.2898C40.2493 39.5926 43.4324 41.2537 46.7139 41.9938C47.0094 41.5989 47.3209 41.1878 47.6655 40.7773C48.65 40.9582 49.6672 41.0569 50.7009 41.0728C54.3102 41.1228 59.0029 39.9054 61.7594 37.4051L64.3519 37.3885C62.5963 35.5796 61.1521 33.4246 60.1513 31.0559C59.3637 30.9907 58.6749 30.8588 58.0677 30.6779C57.1818 28.2267 56.7225 25.5787 56.7549 22.832C56.8206 17.7493 58.6091 13.0786 61.5462 9.36084L64.3027 9.29491C60.6439 5.90655 56.3286 3.93242 51.1931 3.86649ZM50.7174 40.1515C55.016 40.2174 58.5765 38.4577 60.6275 37.0762C57.6246 33.1123 55.869 28.1615 55.9347 22.8317C56 17.7163 57.7396 13.0124 60.6107 9.21285C57.92 7.33738 54.6714 6.21934 51.1602 6.17002C47.5177 6.11996 44.1212 7.23899 41.3158 9.17941C44.3511 13.1433 46.1396 18.1275 46.0738 23.5064C46.0081 28.6376 44.2529 33.375 41.3487 37.1746C44.023 39.0334 47.239 40.1024 50.7174 40.1515ZM87.6992 75.055C91.2596 75.055 94.1641 72.9666 94.1641 70.4003C94.1641 67.8348 91.2596 65.7457 87.6992 65.7457C84.1388 65.7457 81.2185 67.8348 81.2185 70.4003C81.2187 72.9666 84.1388 75.055 87.6992 75.055ZM38.3789 71.1736L33.5714 63.5413L28.961 71.1736H38.3789Z" fill="#FCC200"/>
</svg>
