<svg width="20" height="20" viewBox="0 0 20 20" fill="none" xmlns="http://www.w3.org/2000/svg">
<mask id="mask0_172_1129" style="mask-type:alpha" maskUnits="userSpaceOnUse" x="0" y="0" width="20" height="20">
<rect width="20" height="20" rx="5" fill="#D9D9D9"/>
</mask>
<g mask="url(#mask0_172_1129)">
<path d="M17.8389 0H2.16114C0.967616 0 0 0.967616 0 2.16114V17.8389C0 19.0324 0.967616 20 2.16114 20H17.8389C19.0324 20 20 19.0324 20 17.8389V2.16114C20 0.967616 19.0324 0 17.8389 0ZM9.99532 17.5443C5.81506 17.5443 2.42606 14.1553 2.42606 9.97503C2.42606 5.79438 5.81506 2.40577 9.99532 2.40577C14.1756 2.40577 17.5646 5.79438 17.5646 9.97503C17.5646 14.1553 14.1756 17.5443 9.99532 17.5443Z" fill="white"/>
<path d="M9.99532 17.5443C5.81506 17.5443 2.42606 14.1553 2.42606 9.97503C2.42606 5.79438 5.81506 2.40577 9.99532 2.40577C14.1756 2.40577 17.5646 5.79438 17.5646 9.97503C17.5646 14.1553 14.1756 17.5443 9.99532 17.5443Z" fill="white"/>
<path d="M17.5012 9.85179C17.5012 9.77681 17.4403 9.71472 17.3653 9.7112C14.6741 9.60928 13.0362 9.26599 11.8904 8.12017C10.7422 6.972 10.4001 5.33293 10.2982 2.63591C10.2958 2.56092 10.2337 2.5 10.1576 2.5H9.8436C9.76861 2.5 9.70652 2.56092 9.70301 2.63591C9.60107 5.33176 9.25897 6.972 8.1108 8.12017C6.9638 9.26717 5.32707 9.60928 2.63591 9.7112C2.56092 9.71354 2.5 9.77564 2.5 9.85179V10.1658C2.5 10.2408 2.56092 10.3029 2.63591 10.3064C5.32707 10.4083 6.96497 10.7516 8.1108 11.8974C9.25663 13.0432 9.59872 14.6777 9.70183 17.3641C9.70418 17.4391 9.76627 17.5 9.84242 17.5H10.1576C10.2326 17.5 10.2947 17.4391 10.2982 17.3641C10.4013 14.6777 10.7434 13.0432 11.8892 11.8974C13.0362 10.7504 14.6729 10.4083 17.3641 10.3064C17.4391 10.304 17.5 10.2419 17.5 10.1658V9.85179H17.5012Z" fill="#1A1A18"/>
</g>
</svg>
