<svg width="20" height="20" viewBox="0 0 20 20" fill="none" xmlns="http://www.w3.org/2000/svg">
<mask id="mask0_172_1114" style="mask-type:alpha" maskUnits="userSpaceOnUse" x="0" y="0" width="20" height="20">
<rect width="20" height="20" rx="5" fill="#D9D9D9"/>
</mask>
<g mask="url(#mask0_172_1114)">
<path d="M13.1579 11.4381C13.1948 11.5039 13.1948 11.8105 13.0685 12.1697C12.9421 12.5289 12.4369 12.8276 12.0356 12.9118C11.7606 12.971 11.4014 13.0171 10.1935 12.5171C8.64082 11.875 7.64477 10.3026 7.56714 10.2013C7.48951 10.1 6.94214 9.36838 6.94214 8.61444C6.93505 8.37477 6.97941 8.13636 7.07225 7.91529C7.16508 7.69421 7.30422 7.49561 7.4803 7.33286C7.6283 7.20225 7.82128 7.13431 8.01846 7.14338C8.08293 7.14338 8.14214 7.14338 8.19477 7.14996C8.34872 7.14996 8.42635 7.16575 8.52898 7.41312C8.66056 7.7197 8.96451 8.47496 9.00267 8.55259C9.02831 8.59496 9.04358 8.64279 9.04724 8.69218C9.05089 8.74156 9.04284 8.79112 9.02372 8.8368C8.98094 8.92635 8.92358 9.00816 8.85398 9.07891C8.77635 9.16838 8.70267 9.2368 8.62504 9.33286C8.5474 9.42891 8.47372 9.50654 8.56319 9.66049C8.79418 10.054 9.08193 10.4114 9.41714 10.721C9.77883 11.0502 10.1999 11.3074 10.6579 11.4789C10.7184 11.5077 10.7862 11.5176 10.8524 11.5073C10.9186 11.4969 10.9801 11.4669 11.029 11.421C11.1759 11.2465 11.3134 11.0642 11.4408 10.875C11.4785 10.8126 11.5379 10.7663 11.6077 10.7452C11.6774 10.7241 11.7525 10.7295 11.8185 10.7605C11.9606 10.8105 12.7119 11.1815 12.8711 11.2592C13.0303 11.3368 13.1171 11.3736 13.1579 11.4381Z" fill="white"/>
<path d="M18.4211 0H1.57895C1.16018 0 0.758573 0.166353 0.462463 0.462463C0.166353 0.758573 0 1.16018 0 1.57895L0 18.4211C0 18.8398 0.166353 19.2414 0.462463 19.5375C0.758573 19.8336 1.16018 20 1.57895 20H18.4211C18.8398 20 19.2414 19.8336 19.5375 19.5375C19.8336 19.2414 20 18.8398 20 18.4211V1.57895C20 1.16018 19.8336 0.758573 19.5375 0.462463C19.2414 0.166353 18.8398 0 18.4211 0ZM10 15.2632C8.97043 15.2651 7.96328 14.9625 7.10526 14.3934L5.0829 15.0408L5.74079 13.0855C5.17248 12.3002 4.8321 11.3731 4.75721 10.4066C4.68231 9.44013 4.8758 8.47171 5.31634 7.60819C5.75688 6.74467 6.42735 6.0196 7.2538 5.51293C8.08026 5.00626 9.0306 4.7377 10 4.73684C11.3959 4.73684 12.7346 5.29135 13.7216 6.27839C14.7086 7.26542 15.2632 8.60412 15.2632 10C15.2632 11.3959 14.7086 12.7346 13.7216 13.7216C12.7346 14.7086 11.3959 15.2632 10 15.2632Z" fill="white"/>
</g>
</svg>
